<svg width="935" height="456" viewBox="0 0 935 456" fill="none" xmlns="http://www.w3.org/2000/svg">
<path d="M622.807 274.895C621.437 277.563 620.93 279.783 619.597 280.737C617.368 282.368 614.894 283.605 612.275 284.397C607.488 285.974 602.494 286.909 597.763 288.584C595.059 289.557 593.05 289.071 591.642 286.87C590.065 284.358 591.398 282.275 593.388 280.6C593.659 280.298 593.984 280.053 594.346 279.88C601.987 277.485 609.609 274.954 617.325 272.87C618.677 272.5 620.498 273.941 622.807 274.817" fill="#7F594C" fill-opacity="0.06"/>
<path d="M612.259 262.94C611.591 264.034 610.782 265.03 609.856 265.899C602.759 270.67 594.236 269.794 586.463 271.916C585.919 272.052 583.741 269.034 583.967 267.788C584.212 266.851 584.649 265.98 585.249 265.234C585.848 264.488 586.595 263.885 587.44 263.465C592.426 261.37 597.577 259.722 602.835 258.539C605.163 258.052 607.941 259.357 610.344 260.214C611.133 260.506 611.564 261.966 612.222 262.94" fill="#7F594C" fill-opacity="0.06"/>
<path d="M356.222 272.831C357.292 273.24 360.202 274.272 363.093 275.382C367.023 277.095 371.033 278.602 375.108 279.899C377.793 280.6 379.426 281.418 379.257 284.495C379.051 288.136 376.629 289.226 373.625 289.499C372.455 289.543 371.289 289.351 370.189 288.934C364.294 286.87 358.399 284.728 352.504 282.586C351.415 282.177 349.951 282.002 349.388 281.184C348.318 279.627 346.891 277.426 347.285 275.985C347.679 274.545 350.12 273.766 351.772 272.89C352.392 272.559 353.311 272.89 356.165 272.89" fill="#7F594C" fill-opacity="0.06"/>
<path d="M362.192 257.916C369.908 259.98 376.291 261.46 382.524 263.505C383.97 263.991 386.053 267.087 385.697 267.749C384.721 269.58 382.449 272.13 380.947 271.955C374.451 271.176 368.049 269.56 361.628 268.178C359 267.613 357.029 265.802 358.061 263.096C359.132 261.13 360.531 259.376 362.192 257.916Z" fill="#7F594C" fill-opacity="0.06"/>
<path d="M901.532 315.319C900.048 312.991 886.474 294.446 884.701 292.268C877.382 282.341 869.335 273.015 860.63 264.375C842.893 248.42 824.433 233.441 805.755 218.499C782.408 199.728 756.998 182.985 740.384 157.081C728.366 138.31 712.476 123.894 697.454 108.277C691.59 102.233 682.722 98.5539 678.487 91.6462C670.668 79.0322 658.579 75.3157 646.598 71.2988C630.679 66.4508 615.296 59.8824 600.7 51.7019C580.502 39.8013 559.508 28.7266 540.685 13.9727C531.468 7.16324 520.89 2.5952 509.737 0.607943C493.666 -2.28276 485.051 5.18795 480.128 21.8939C476.291 34.9959 472.563 48.1731 467.857 64.4286C465.323 50.9887 464.237 40.1392 461.197 29.8903C452.98 2.40989 442.664 -3.89711 417.761 2.18462C411.95 4.04875 406.464 6.86229 401.508 10.519C391.88 16.7509 382.794 23.9213 373.094 30.003C348.516 45.3951 323.504 59.7734 295.451 68.1076C275.145 74.1518 261.824 91.5712 247.454 106.062C224.18 129.526 200.398 152.651 178.282 177.166C172.822 182.57 167.017 187.587 160.907 192.182C124.457 222.741 83.084 247.556 54.2351 287.125C32.5169 316.783 6.99805 343.775 1.02557 383.194C-3.31806 411.988 5.69496 445.926 36.5347 451.144C44.2447 452.421 84.9301 455.611 88.8755 455.386C123.19 453.396 155.261 442.509 186.607 428.732C205.104 420.548 224.578 413.452 240.903 401.89C261.499 387.436 283.144 374.822 290.456 344.414C298.577 313.176 315.054 284.959 337.983 263.023C343.267 257.768 348.045 254.464 356.081 258.106C368.822 263.924 381.419 260.733 393.183 254.351C406.467 246.843 419.534 239.072 432.638 231.301C439.259 227.467 444.918 222.072 449.156 215.55C453.394 209.028 456.093 201.563 457.034 193.759C458.844 182.234 460.328 170.671 462.464 159.221C463.115 155.467 465.323 152.313 468.943 144.204C472.056 161.098 475.314 173.111 476.363 185.5C478.318 208.476 488.308 225.294 508.181 235.881C515.631 239.669 522.88 243.867 529.899 248.457C546.549 259.72 564.575 264.525 583.724 258.856C585.795 258.1 588.037 258 590.164 258.568C592.291 259.136 594.207 260.347 595.668 262.047C603.523 270.382 611.993 278.866 617.133 289.002C627.63 309.575 639.43 329.585 646.091 352.297C648.801 361.787 653.365 370.597 659.499 378.179C665.633 385.761 673.205 391.953 681.745 396.371C706.503 409.661 731.117 424.001 757.179 433.912C786.571 445.175 816.542 456.437 848.902 455.987C851.291 455.987 881.769 455.987 885.606 455.499C914.563 451.97 932.046 431.097 934.218 400.951C936.643 366.563 918.328 341.635 901.641 315.657L901.532 315.319ZM57.891 312.315C56.6381 312.315 55.4135 311.93 54.3718 311.208C53.3301 310.486 52.5183 309.46 52.0388 308.26C51.5594 307.059 51.4338 305.738 51.6783 304.464C51.9227 303.19 52.526 302.019 53.4119 301.1C54.2978 300.181 55.4263 299.556 56.6551 299.302C57.8839 299.049 59.1575 299.179 60.315 299.676C61.4725 300.173 62.4619 301.015 63.1579 302.096C63.854 303.176 64.2254 304.446 64.2254 305.746C64.2159 307.485 63.5456 309.15 62.3597 310.38C61.1738 311.61 59.5681 312.305 57.891 312.315ZM78.2699 331.987C77.0155 331.995 75.7872 331.616 74.7407 330.898C73.6943 330.181 72.8768 329.158 72.3918 327.958C71.9068 326.758 71.7762 325.436 72.0165 324.159C72.2568 322.882 72.8573 321.708 73.7417 320.785C74.6261 319.863 75.7548 319.233 76.9845 318.977C78.2142 318.72 79.4897 318.848 80.6493 319.344C81.8088 319.84 82.8003 320.682 83.4979 321.764C84.1956 322.845 84.5681 324.117 84.5681 325.418C84.5681 327.153 83.9057 328.819 82.7255 330.05C81.5454 331.281 79.9436 331.977 78.2699 331.987ZM99.5537 318.848C99.5537 317.548 99.9251 316.278 100.621 315.198C101.317 314.117 102.307 313.275 103.464 312.778C104.622 312.281 105.895 312.151 107.124 312.404C108.353 312.658 109.481 313.283 110.367 314.202C111.253 315.121 111.856 316.292 112.101 317.566C112.345 318.84 112.22 320.161 111.74 321.362C111.261 322.562 110.449 323.588 109.407 324.31C108.366 325.032 107.141 325.418 105.888 325.418C105.055 325.423 104.229 325.256 103.458 324.927C102.688 324.599 101.987 324.115 101.398 323.504C100.809 322.893 100.343 322.167 100.026 321.368C99.7094 320.568 99.5489 319.712 99.5537 318.848ZM115.661 349.519C114.408 349.519 113.184 349.134 112.142 348.412C111.1 347.69 110.288 346.664 109.809 345.463C109.329 344.263 109.204 342.942 109.449 341.668C109.693 340.393 110.296 339.223 111.182 338.304C112.068 337.385 113.197 336.759 114.425 336.506C115.654 336.252 116.928 336.382 118.085 336.88C119.243 337.377 120.232 338.219 120.928 339.299C121.624 340.38 121.996 341.65 121.996 342.949C121.986 344.689 121.316 346.354 120.13 347.584C118.944 348.814 117.338 349.509 115.661 349.519ZM136.583 368.29C135.329 368.297 134.101 367.918 133.054 367.201C132.008 366.484 131.19 365.46 130.705 364.26C130.22 363.061 130.089 361.738 130.33 360.462C130.57 359.185 131.17 358.01 132.055 357.088C132.939 356.165 134.068 355.536 135.298 355.279C136.527 355.023 137.803 355.151 138.963 355.647C140.122 356.143 141.114 356.985 141.811 358.066C142.509 359.148 142.881 360.419 142.881 361.72C142.881 363.456 142.219 365.121 141.039 366.352C139.859 367.583 138.257 368.28 136.583 368.29ZM170.681 370.58C169.428 370.58 168.203 370.195 167.161 369.473C166.12 368.751 165.308 367.725 164.828 366.524C164.349 365.324 164.223 364.003 164.468 362.729C164.712 361.454 165.315 360.283 166.201 359.365C167.087 358.446 168.216 357.82 169.445 357.567C170.674 357.313 171.947 357.443 173.105 357.941C174.262 358.438 175.251 359.28 175.947 360.36C176.643 361.441 177.015 362.711 177.015 364.01C177.015 365.753 176.348 367.424 175.16 368.656C173.972 369.888 172.361 370.58 170.681 370.58ZM203.258 361.72C202.004 361.72 200.777 361.334 199.735 360.61C198.692 359.887 197.881 358.858 197.402 357.656C196.924 356.453 196.8 355.13 197.048 353.855C197.295 352.579 197.902 351.409 198.792 350.492C199.681 349.574 200.813 348.952 202.044 348.702C203.275 348.453 204.55 348.589 205.707 349.092C206.864 349.595 207.851 350.442 208.542 351.528C209.234 352.613 209.6 353.887 209.592 355.188C209.592 356.049 209.428 356.901 209.109 357.696C208.791 358.491 208.323 359.213 207.735 359.82C207.146 360.427 206.447 360.908 205.679 361.234C204.911 361.56 204.088 361.725 203.258 361.72ZM234.568 348.618C233.315 348.618 232.091 348.233 231.049 347.511C230.007 346.789 229.195 345.763 228.716 344.562C228.236 343.362 228.111 342.041 228.355 340.767C228.6 339.492 229.203 338.322 230.089 337.403C230.975 336.484 232.103 335.858 233.332 335.605C234.561 335.351 235.835 335.481 236.992 335.979C238.15 336.476 239.139 337.318 239.835 338.398C240.531 339.479 240.903 340.749 240.903 342.048C240.907 342.913 240.747 343.769 240.43 344.568C240.114 345.368 239.647 346.094 239.058 346.705C238.469 347.316 237.769 347.8 236.998 348.128C236.227 348.457 235.401 348.623 234.568 348.618ZM260.521 331.95C259.268 331.95 258.044 331.564 257.002 330.843C255.96 330.121 255.148 329.094 254.669 327.894C254.19 326.694 254.064 325.373 254.308 324.098C254.553 322.824 255.156 321.653 256.042 320.734C256.928 319.816 258.057 319.19 259.286 318.936C260.514 318.683 261.788 318.813 262.945 319.31C264.103 319.807 265.092 320.649 265.788 321.73C266.484 322.81 266.856 324.081 266.856 325.38C266.856 327.122 266.188 328.793 265.001 330.025C263.813 331.258 262.201 331.95 260.521 331.95ZM448.275 133.693C447.225 148.259 442.519 162.6 438.791 176.828C437.38 180.494 434.995 183.671 431.914 185.988C420.801 195.449 408.82 203.858 398.251 213.919C384.17 227.321 365.673 230.663 348.95 236.444C331.02 242.894 315.857 255.695 306.129 272.597C296.827 287.425 286.366 298.876 268.847 304.507C251.327 310.138 235.726 319.899 219.908 329.097C201.81 339.683 181.938 344.301 161.776 347.604C157.724 348.388 153.559 348.273 149.553 347.265C145.548 346.258 141.793 344.382 138.538 341.761C135.282 339.14 132.599 335.833 130.665 332.058C128.73 328.284 127.589 324.126 127.317 319.861C125.145 297.562 122.828 296.135 102.196 303.08C95.128 305.625 87.8617 307.535 80.4778 308.787C79.1518 309.019 77.7896 308.863 76.544 308.338C75.2983 307.812 74.2184 306.937 73.4253 305.81C72.6323 304.684 72.1576 303.351 72.0543 301.96C71.9509 300.569 72.2231 299.176 72.8403 297.937C75.8017 291.555 79.7374 285.711 84.4956 280.63C96.5492 268.692 108.241 255.74 122.104 246.468C161.342 220.188 193.231 185.125 228.704 154.378C231.636 151.825 234.459 149.197 237.21 146.457C245.97 137.747 255.309 135.983 265.806 143.341C276.104 150.291 288.295 153.596 300.555 152.764C305.224 152.764 310.003 152.276 311.088 146.232C312.283 139.399 308.048 135.645 302.727 134.068C294.836 131.741 286.619 130.689 278.584 128.85C275.644 128.19 272.797 127.143 270.113 125.734C263.924 122.393 263.091 117.249 268.557 112.707C288.176 96.5641 308.953 85.5269 335.558 93.4481C353.831 98.9002 372.799 101.432 391.807 100.956C397.873 101.002 403.85 99.4563 409.185 96.4633C414.52 93.4704 419.039 89.1272 422.321 83.8375C428.764 74.1142 434.99 64.2408 443.605 50.9511C446.175 59.0976 448.528 63.2272 448.6 67.3943C448.999 89.4687 449.976 111.656 448.383 133.618L448.275 133.693ZM675.519 340.096C674.263 340.104 673.033 339.724 671.986 339.005C670.939 338.286 670.121 337.26 669.637 336.058C669.154 334.856 669.025 333.532 669.268 332.254C669.512 330.976 670.115 329.802 671.003 328.881C671.892 327.96 673.024 327.334 674.256 327.081C675.488 326.829 676.764 326.962 677.923 327.464C679.082 327.966 680.071 328.814 680.765 329.9C681.458 330.986 681.824 332.261 681.817 333.564C681.817 335.296 681.153 336.958 679.972 338.183C678.791 339.408 677.189 340.096 675.519 340.096ZM701.436 356.765C700.183 356.765 698.958 356.379 697.917 355.657C696.875 354.936 696.063 353.909 695.583 352.709C695.104 351.508 694.979 350.188 695.223 348.913C695.467 347.639 696.071 346.468 696.957 345.549C697.842 344.631 698.971 344.005 700.2 343.751C701.429 343.498 702.702 343.628 703.86 344.125C705.017 344.623 706.007 345.465 706.703 346.545C707.399 347.625 707.77 348.895 707.77 350.195C707.77 351.937 707.103 353.608 705.915 354.84C704.727 356.072 703.116 356.765 701.436 356.765ZM732.782 369.904C731.529 369.904 730.305 369.519 729.263 368.797C728.221 368.075 727.409 367.049 726.93 365.848C726.451 364.648 726.325 363.327 726.57 362.053C726.814 360.778 727.417 359.608 728.303 358.689C729.189 357.77 730.318 357.144 731.546 356.891C732.775 356.637 734.049 356.768 735.206 357.265C736.364 357.762 737.353 358.604 738.049 359.685C738.745 360.765 739.117 362.035 739.117 363.334C739.117 365.077 738.449 366.748 737.261 367.98C736.073 369.212 734.462 369.904 732.782 369.904ZM765.36 378.726C764.105 378.726 762.879 378.34 761.837 377.617C760.794 376.893 759.982 375.865 759.504 374.662C759.026 373.46 758.902 372.136 759.149 370.861C759.397 369.586 760.004 368.415 760.893 367.498C761.783 366.581 762.915 365.958 764.146 365.709C765.377 365.459 766.652 365.595 767.809 366.098C768.966 366.601 769.953 367.449 770.644 368.534C771.336 369.62 771.701 370.893 771.694 372.194C771.694 373.055 771.53 373.908 771.211 374.703C770.892 375.498 770.425 376.22 769.836 376.827C769.248 377.434 768.549 377.914 767.781 378.24C767.013 378.566 766.19 378.731 765.36 378.726ZM799.457 376.474C798.204 376.474 796.979 376.089 795.938 375.367C794.896 374.645 794.084 373.619 793.605 372.418C793.125 371.218 793 369.897 793.244 368.622C793.489 367.348 794.092 366.177 794.978 365.259C795.864 364.34 796.993 363.714 798.221 363.461C799.45 363.207 800.724 363.337 801.881 363.835C803.038 364.332 804.028 365.174 804.724 366.254C805.42 367.335 805.791 368.605 805.791 369.904C805.782 371.644 805.112 373.309 803.926 374.539C802.74 375.769 801.134 376.464 799.457 376.474ZM820.379 357.703C819.125 357.711 817.896 357.332 816.85 356.614C815.803 355.897 814.986 354.873 814.501 353.674C814.016 352.474 813.885 351.152 814.125 349.875C814.366 348.598 814.966 347.424 815.851 346.501C816.735 345.579 817.864 344.949 819.094 344.693C820.323 344.436 821.599 344.564 822.758 345.06C823.918 345.556 824.909 346.398 825.607 347.48C826.305 348.561 826.677 349.832 826.677 351.133C826.677 352.869 826.015 354.535 824.835 355.766C823.654 356.997 822.053 357.693 820.379 357.703ZM830.152 333.639C828.899 333.639 827.674 333.254 826.633 332.532C825.591 331.81 824.779 330.784 824.3 329.583C823.82 328.383 823.695 327.062 823.939 325.788C824.184 324.513 824.787 323.342 825.673 322.424C826.559 321.505 827.687 320.879 828.916 320.626C830.145 320.372 831.419 320.502 832.576 321C833.734 321.497 834.723 322.339 835.419 323.419C836.115 324.5 836.486 325.77 836.486 327.069C836.486 328.812 835.819 330.483 834.631 331.715C833.443 332.947 831.832 333.639 830.152 333.639ZM848.504 308.862C841.264 306.797 834.496 303.005 827.329 300.678C812.85 295.947 807.746 299.589 806.515 315.056C806.515 316.633 806.515 318.21 806.515 319.786C804.597 341.973 790.697 353.273 769.305 348.618C755.964 345.92 742.917 341.846 730.357 336.455C703.391 324.366 678.125 308.486 650.145 298.538C644.932 296.661 640.553 291.029 636.861 286.224C631.214 278.904 627.051 270.306 621.26 263.136C606.238 244.365 594.438 237.232 569.1 228.56C547.382 221.052 529.283 206.711 510.425 193.834C504.717 189.79 499.979 184.441 496.578 178.2C493.177 171.958 491.202 164.99 490.806 157.832C489.901 133.242 478.716 109.028 488.453 83.6498C491.566 75.5409 488.96 65.0668 488.96 51.5519C494.679 56.8452 498.154 59.06 500.217 62.2135C503.62 67.3567 505.574 73.476 509.013 78.6568C518.497 92.8099 529.826 102.833 548.54 101.407C567.254 99.9803 584.737 100.581 602.582 94.6871C621.441 88.4176 654.163 97.4652 667.99 111.205C674.867 118.038 674.505 123.181 666.542 127.874C656.769 133.693 646.887 139.136 636.281 145.293C643.521 154.941 650.29 153.665 656.986 151.563C662.741 149.723 668.243 146.945 674.035 145.068C686.269 141.088 698.794 136.583 706.612 152.576C733.036 172.511 750.048 202.807 778.535 220.864C791.77 229.679 804.397 239.438 816.325 250.072C829.682 261.597 842.278 274.061 855.055 286.299C857.509 288.181 859.342 290.803 860.304 293.807C861.134 298.236 860.59 302.823 858.747 306.91C857.481 309.012 851.508 309.65 848.432 308.749L848.504 308.862ZM857.698 340.059C856.444 340.059 855.217 339.672 854.175 338.949C853.133 338.225 852.321 337.197 851.842 335.994C851.364 334.792 851.24 333.469 851.488 332.193C851.735 330.918 852.342 329.747 853.232 328.83C854.121 327.913 855.253 327.29 856.484 327.041C857.715 326.791 858.99 326.927 860.147 327.43C861.304 327.933 862.291 328.781 862.982 329.866C863.674 330.952 864.04 332.225 864.032 333.526C864.023 335.262 863.351 336.924 862.164 338.148C860.977 339.372 859.372 340.059 857.698 340.059ZM878.041 320.387C876.788 320.387 875.563 320.002 874.521 319.28C873.479 318.558 872.668 317.532 872.188 316.331C871.709 315.131 871.583 313.81 871.828 312.535C872.072 311.261 872.676 310.09 873.561 309.172C874.447 308.253 875.576 307.627 876.805 307.374C878.033 307.12 879.307 307.25 880.465 307.748C881.622 308.245 882.611 309.087 883.307 310.167C884.004 311.248 884.375 312.518 884.375 313.817C884.38 314.681 884.219 315.538 883.903 316.337C883.586 317.136 883.119 317.863 882.53 318.474C881.941 319.085 881.241 319.569 880.47 319.897C879.7 320.225 878.874 320.392 878.041 320.387Z" fill="#7F594C" fill-opacity="0.06"/>
</svg>
