<svg width="15" height="15" viewBox="0 0 15 15" fill="none" xmlns="http://www.w3.org/2000/svg">
<path d="M14.4642 5.21565L10.039 4.54088L8.06236 0.33622C7.94543 0.12789 7.73221 0 7.50179 0C7.27138 0 7.05816 0.12789 6.94123 0.33622L4.96082 4.54088L0.535672 5.21565C0.300263 5.2513 0.104551 5.42409 0.0308108 5.66137C-0.0429297 5.89865 0.0180865 6.15928 0.188209 6.3337L3.39099 9.60851L2.63544 14.2335C2.59528 14.4795 2.69168 14.7281 2.88412 14.8748C3.07657 15.0215 3.33169 15.0408 3.54222 14.9247L7.49992 12.7417L11.4576 14.9247C11.6682 15.0408 11.9233 15.0215 12.1157 14.8748C12.3082 14.7281 12.4046 14.4795 12.3644 14.2335L11.6089 9.60851L14.8116 6.3337C14.9817 6.15946 15.0428 5.89907 14.9694 5.66186C14.8959 5.42466 14.7006 5.25171 14.4654 5.21565H14.4642Z" fill="#D9D9D9"/>
<mask id="mask0_244_10243" style="mask-type:alpha" maskUnits="userSpaceOnUse" x="0" y="0" width="15" height="15">
<path d="M14.4642 5.21565L10.039 4.54088L8.06236 0.33622C7.94543 0.12789 7.73221 0 7.50179 0C7.27138 0 7.05816 0.12789 6.94123 0.33622L4.96082 4.54088L0.535672 5.21565C0.300263 5.2513 0.104551 5.42409 0.0308108 5.66137C-0.0429297 5.89865 0.0180865 6.15928 0.188209 6.3337L3.39099 9.60851L2.63544 14.2335C2.59528 14.4795 2.69168 14.7281 2.88412 14.8748C3.07657 15.0215 3.33169 15.0408 3.54222 14.9247L7.49992 12.7417L11.4576 14.9247C11.6682 15.0408 11.9233 15.0215 12.1157 14.8748C12.3082 14.7281 12.4046 14.4795 12.3644 14.2335L11.6089 9.60851L14.8116 6.3337C14.9817 6.15946 15.0428 5.89907 14.9694 5.66186C14.8959 5.42466 14.7006 5.25171 14.4654 5.21565H14.4642Z" fill="white"/>
</mask>
<g mask="url(#mask0_244_10243)">
</g>
</svg>
