<svg width="127" height="46" viewBox="0 0 127 46" fill="none" xmlns="http://www.w3.org/2000/svg">
<circle cx="23" cy="23" r="22.5" stroke="#202020"/>
<path d="M19.134 22.992C20.014 23.2707 20.7033 23.74 21.202 24.4C21.7007 25.0453 21.95 25.8447 21.95 26.798C21.95 28.1473 21.422 29.1887 20.366 29.922C19.3247 30.6407 17.7993 31 15.79 31H7.826V15.6H15.35C17.2273 15.6 18.6647 15.9593 19.662 16.678C20.674 17.3967 21.18 18.372 21.18 19.604C21.18 20.352 20.9967 21.0193 20.63 21.606C20.278 22.1927 19.7793 22.6547 19.134 22.992ZM11.368 18.284V21.914H14.91C15.79 21.914 16.4573 21.76 16.912 21.452C17.3667 21.144 17.594 20.6893 17.594 20.088C17.594 19.4867 17.3667 19.0393 16.912 18.746C16.4573 18.438 15.79 18.284 14.91 18.284H11.368ZM15.526 28.316C16.4647 28.316 17.1687 28.162 17.638 27.854C18.122 27.546 18.364 27.0693 18.364 26.424C18.364 25.148 17.418 24.51 15.526 24.51H11.368V28.316H15.526ZM35.0543 23.058H38.3103V29.306C37.4743 29.9367 36.5063 30.4207 35.4063 30.758C34.3063 31.0953 33.1989 31.264 32.0843 31.264C30.4856 31.264 29.0483 30.9267 27.7723 30.252C26.4963 29.5627 25.4916 28.6167 24.7583 27.414C24.0396 26.1967 23.6803 24.8253 23.6803 23.3C23.6803 21.7747 24.0396 20.4107 24.7583 19.208C25.4916 17.9907 26.5036 17.0447 27.7943 16.37C29.0849 15.6807 30.5369 15.336 32.1503 15.336C33.4996 15.336 34.7243 15.5633 35.8243 16.018C36.9243 16.4727 37.8483 17.1327 38.5963 17.998L36.3083 20.11C35.2083 18.9513 33.8809 18.372 32.3263 18.372C31.3436 18.372 30.4709 18.5773 29.7083 18.988C28.9456 19.3987 28.3516 19.978 27.9263 20.726C27.5009 21.474 27.2883 22.332 27.2883 23.3C27.2883 24.2533 27.5009 25.104 27.9263 25.852C28.3516 26.6 28.9383 27.1867 29.6863 27.612C30.4489 28.0227 31.3143 28.228 32.2823 28.228C33.3089 28.228 34.2329 28.008 35.0543 27.568V23.058Z" fill="#202020"/>
<path d="M61.447 31.126C60.355 31.126 59.305 30.951 58.297 30.601C57.303 30.251 56.533 29.789 55.987 29.215L56.596 28.018C57.128 28.55 57.835 28.984 58.717 29.32C59.599 29.642 60.509 29.803 61.447 29.803C62.763 29.803 63.75 29.565 64.408 29.089C65.066 28.599 65.395 27.969 65.395 27.199C65.395 26.611 65.213 26.142 64.849 25.792C64.499 25.442 64.065 25.176 63.547 24.994C63.029 24.798 62.308 24.588 61.384 24.364C60.278 24.084 59.396 23.818 58.738 23.566C58.08 23.3 57.513 22.901 57.037 22.369C56.575 21.837 56.344 21.116 56.344 20.206C56.344 19.464 56.54 18.792 56.932 18.19C57.324 17.574 57.926 17.084 58.738 16.72C59.55 16.356 60.558 16.174 61.762 16.174C62.602 16.174 63.421 16.293 64.219 16.531C65.031 16.755 65.731 17.07 66.319 17.476L65.794 18.715C65.178 18.309 64.52 18.008 63.82 17.812C63.12 17.602 62.434 17.497 61.762 17.497C60.474 17.497 59.501 17.749 58.843 18.253C58.199 18.743 57.877 19.38 57.877 20.164C57.877 20.752 58.052 21.228 58.402 21.592C58.766 21.942 59.214 22.215 59.746 22.411C60.292 22.593 61.02 22.796 61.93 23.02C63.008 23.286 63.876 23.552 64.534 23.818C65.206 24.07 65.773 24.462 66.235 24.994C66.697 25.512 66.928 26.219 66.928 27.115C66.928 27.857 66.725 28.536 66.319 29.152C65.927 29.754 65.318 30.237 64.492 30.601C63.666 30.951 62.651 31.126 61.447 31.126ZM75.8159 16.3C77.6919 16.3 79.1619 16.748 80.2259 17.644C81.2899 18.54 81.8219 19.772 81.8219 21.34C81.8219 22.908 81.2899 24.14 80.2259 25.036C79.1619 25.918 77.6919 26.359 75.8159 26.359H71.8679V31H70.3139V16.3H75.8159ZM75.7739 24.994C77.2299 24.994 78.3429 24.679 79.1129 24.049C79.8829 23.405 80.2679 22.502 80.2679 21.34C80.2679 20.15 79.8829 19.24 79.1129 18.61C78.3429 17.966 77.2299 17.644 75.7739 17.644H71.8679V24.994H75.7739ZM93.6628 27.073H85.4728L83.7088 31H82.0918L88.8118 16.3H90.3448L97.0648 31H95.4268L93.6628 27.073ZM93.0958 25.813L89.5678 17.917L86.0398 25.813H93.0958ZM105.675 31.126C104.219 31.126 102.903 30.804 101.727 30.16C100.565 29.516 99.6485 28.627 98.9765 27.493C98.3185 26.345 97.9895 25.064 97.9895 23.65C97.9895 22.236 98.3185 20.962 98.9765 19.828C99.6485 18.68 100.572 17.784 101.748 17.14C102.924 16.496 104.24 16.174 105.696 16.174C106.788 16.174 107.796 16.356 108.72 16.72C109.644 17.084 110.428 17.616 111.072 18.316L110.085 19.303C108.937 18.141 107.488 17.56 105.738 17.56C104.576 17.56 103.519 17.826 102.567 18.358C101.615 18.89 100.866 19.618 100.32 20.542C99.7885 21.466 99.5225 22.502 99.5225 23.65C99.5225 24.798 99.7885 25.834 100.32 26.758C100.866 27.682 101.615 28.41 102.567 28.942C103.519 29.474 104.576 29.74 105.738 29.74C107.502 29.74 108.951 29.152 110.085 27.976L111.072 28.963C110.428 29.663 109.637 30.202 108.699 30.58C107.775 30.944 106.767 31.126 105.675 31.126ZM124.78 29.656V31H114.385V16.3H124.465V17.644H115.939V22.873H123.541V24.196H115.939V29.656H124.78Z" fill="#202020"/>
</svg>
