<svg width="459" height="170" viewBox="0 0 459 170" fill="none" xmlns="http://www.w3.org/2000/svg">
<g clip-path="url(#clip0_83_9048)">
<path d="M373.94 46.4391H254.015C253.66 45.7535 253.132 45.1807 252.489 44.7815C251.846 44.3822 251.111 44.1715 250.362 44.1715C249.613 44.1715 248.878 44.3822 248.235 44.7815C247.592 45.1807 247.064 45.7535 246.709 46.4391H235.137C234.726 45.1805 233.946 44.0873 232.907 43.3132C231.869 42.5391 230.623 42.1228 229.345 42.1228C228.067 42.1228 226.821 42.5391 225.783 43.3132C224.744 44.0873 223.964 45.1805 223.553 46.4391H212.453C212.097 45.7535 211.57 45.1807 210.927 44.7815C210.284 44.3822 209.549 44.1715 208.8 44.1715C208.051 44.1715 207.316 44.3822 206.673 44.7815C206.029 45.1807 205.502 45.7535 205.146 46.4391H84.7368C84.4542 46.3972 84.1662 46.419 83.8924 46.5029C83.6186 46.5868 83.3653 46.731 83.1497 46.9256C82.9341 47.1202 82.7612 47.3608 82.6427 47.6309C82.5242 47.9011 82.4629 48.1946 82.4629 48.4915C82.4629 48.7885 82.5242 49.082 82.6427 49.3522C82.7612 49.6224 82.9341 49.8629 83.1497 50.0575C83.3653 50.2521 83.6186 50.3963 83.8924 50.4802C84.1662 50.5641 84.4542 50.5859 84.7368 50.544H205.146C205.502 51.2297 206.029 51.8024 206.673 52.2016C207.316 52.6008 208.051 52.8116 208.8 52.8116C209.549 52.8116 210.284 52.6008 210.927 52.2016C211.57 51.8024 212.097 51.2297 212.453 50.544H223.566C223.977 51.8027 224.757 52.8958 225.796 53.6699C226.835 54.444 228.08 54.8603 229.358 54.8603C230.636 54.8603 231.882 54.444 232.921 53.6699C233.96 52.8958 234.739 51.8027 235.151 50.544H246.722C247.078 51.2297 247.605 51.8024 248.248 52.2016C248.891 52.6008 249.626 52.8116 250.375 52.8116C251.124 52.8116 251.859 52.6008 252.502 52.2016C253.146 51.8024 253.673 51.2297 254.029 50.544H373.94C374.415 50.4736 374.85 50.2272 375.164 49.8502C375.478 49.4731 375.652 48.9907 375.652 48.4915C375.652 47.9924 375.478 47.51 375.164 47.1329C374.85 46.7559 374.415 46.5095 373.94 46.4391" fill="#7F594C"/>
<path d="M278.384 105.725C277.899 106.672 277.72 107.459 277.248 107.798C276.459 108.377 275.584 108.816 274.657 109.097C272.963 109.657 271.197 109.989 269.523 110.583C268.566 110.929 267.855 110.756 267.357 109.975C266.799 109.083 267.271 108.344 267.975 107.75C268.071 107.642 268.186 107.555 268.314 107.494C271.017 106.644 273.714 105.746 276.444 105.006C276.922 104.875 277.567 105.386 278.384 105.697" fill="#7F594C"/>
<path d="M274.652 101.482C274.415 101.87 274.129 102.223 273.802 102.532C271.291 104.225 268.275 103.914 265.525 104.667C265.332 104.716 264.562 103.645 264.642 103.202C264.728 102.87 264.883 102.561 265.095 102.296C265.307 102.031 265.572 101.817 265.87 101.668C267.635 100.925 269.457 100.34 271.317 99.9198C272.141 99.7471 273.124 100.21 273.974 100.514C274.253 100.618 274.406 101.136 274.639 101.482" fill="#7F594C"/>
<path d="M184.062 104.992C184.44 105.137 185.47 105.504 186.493 105.897C187.883 106.505 189.302 107.04 190.744 107.501C191.694 107.749 192.272 108.04 192.212 109.132C192.139 110.424 191.282 110.811 190.219 110.908C189.805 110.923 189.393 110.855 189.004 110.707C186.918 109.975 184.832 109.215 182.746 108.454C182.361 108.309 181.843 108.247 181.644 107.957C181.265 107.404 180.76 106.623 180.9 106.112C181.039 105.6 181.903 105.324 182.487 105.013C182.706 104.895 183.032 105.013 184.042 105.013" fill="#7F594C"/>
<path d="M186.174 99.699C188.904 100.431 191.162 100.957 193.367 101.682C193.879 101.855 194.616 102.954 194.49 103.189C194.145 103.838 193.341 104.744 192.809 104.681C190.511 104.405 188.246 103.831 185.974 103.341C185.044 103.14 184.347 102.498 184.712 101.537C185.091 100.839 185.586 100.217 186.174 99.699" fill="#7F594C"/>
<path d="M309.051 127.984C308.779 127.555 306.288 124.141 305.962 123.741C304.619 121.913 303.142 120.196 301.545 118.606C298.29 115.669 294.902 112.912 291.475 110.161C287.19 106.706 282.527 103.624 279.478 98.8556C277.273 95.4003 274.357 92.7466 271.6 89.8718C270.524 88.7592 268.897 88.082 268.12 86.8105C266.685 84.4885 264.466 83.8044 262.267 83.065C259.346 82.1726 256.523 80.9635 253.845 79.4576C250.138 77.267 246.285 75.2284 242.831 72.5125C241.14 71.259 239.199 70.4181 237.152 70.0523C234.203 69.5202 232.622 70.8954 231.718 73.9706C231.014 76.3824 230.33 78.808 229.467 81.8003C229.002 79.3263 228.802 77.3292 228.244 75.4426C226.736 70.384 224.843 69.2231 220.273 70.3426C219.207 70.6857 218.2 71.2036 217.291 71.8767C215.524 73.0239 213.857 74.3438 212.076 75.4633C207.566 78.2967 202.976 80.9434 197.828 82.4775C194.102 83.5901 191.657 86.7967 189.02 89.4641C184.749 93.7833 180.385 98.0401 176.326 102.553C175.324 103.548 174.259 104.471 173.138 105.317C166.449 110.942 158.856 115.51 153.562 122.794C149.577 128.253 144.894 133.222 143.798 140.478C143 145.778 144.654 152.026 150.314 152.986C151.729 153.221 159.195 153.808 159.919 153.767C166.216 153.401 172.101 151.397 177.854 148.86C181.248 147.354 184.822 146.048 187.818 143.919C191.597 141.259 195.57 138.937 196.911 133.339C198.402 127.589 201.425 122.395 205.633 118.357C206.603 117.39 207.48 116.782 208.954 117.452C211.293 118.523 213.604 117.936 215.763 116.761C218.201 115.379 220.599 113.948 223.003 112.518C224.218 111.812 225.257 110.819 226.035 109.618C226.812 108.418 227.308 107.044 227.48 105.607C227.813 103.486 228.085 101.357 228.477 99.2495C228.596 98.5584 229.002 97.9779 229.666 96.4853C230.237 99.595 230.835 101.806 231.028 104.087C231.386 108.316 233.22 111.412 236.866 113.361C238.234 114.058 239.564 114.831 240.852 115.676C243.907 117.749 247.215 118.634 250.729 117.59C251.11 117.451 251.521 117.432 251.911 117.537C252.302 117.642 252.653 117.865 252.921 118.178C254.363 119.712 255.917 121.273 256.86 123.139C258.787 126.926 260.952 130.61 262.174 134.791C262.672 136.537 263.509 138.159 264.635 139.555C265.761 140.951 267.15 142.09 268.717 142.904C273.261 145.35 277.778 147.99 282.56 149.814C287.954 151.887 293.454 153.96 299.393 153.878C299.831 153.878 305.424 153.878 306.128 153.788C311.442 153.138 314.651 149.296 315.049 143.747C315.494 137.417 312.133 132.828 309.071 128.046L309.051 127.984ZM154.233 127.431C154.003 127.431 153.778 127.36 153.587 127.227C153.396 127.094 153.247 126.905 153.159 126.684C153.071 126.463 153.048 126.22 153.093 125.986C153.138 125.751 153.248 125.535 153.411 125.366C153.574 125.197 153.781 125.082 154.006 125.035C154.232 124.989 154.465 125.013 154.678 125.104C154.89 125.196 155.072 125.351 155.2 125.55C155.327 125.748 155.395 125.982 155.395 126.221C155.394 126.542 155.271 126.848 155.053 127.075C154.835 127.301 154.541 127.429 154.233 127.431V127.431ZM157.973 131.052C157.743 131.053 157.517 130.984 157.325 130.851C157.133 130.719 156.983 130.531 156.894 130.31C156.805 130.089 156.781 129.846 156.825 129.611C156.869 129.376 156.98 129.16 157.142 128.99C157.304 128.82 157.511 128.704 157.737 128.657C157.963 128.61 158.197 128.633 158.409 128.725C158.622 128.816 158.804 128.971 158.932 129.17C159.06 129.369 159.129 129.603 159.129 129.843C159.129 130.162 159.007 130.469 158.79 130.695C158.574 130.922 158.28 131.05 157.973 131.052ZM161.879 128.633C161.879 128.394 161.947 128.16 162.075 127.961C162.202 127.762 162.384 127.607 162.596 127.516C162.809 127.424 163.042 127.4 163.268 127.447C163.493 127.494 163.7 127.609 163.863 127.778C164.026 127.947 164.136 128.163 164.181 128.397C164.226 128.632 164.203 128.875 164.115 129.096C164.027 129.317 163.878 129.506 163.687 129.639C163.496 129.772 163.271 129.843 163.041 129.843C162.888 129.844 162.737 129.813 162.595 129.752C162.454 129.692 162.325 129.603 162.217 129.49C162.109 129.378 162.023 129.244 161.965 129.097C161.907 128.95 161.878 128.792 161.879 128.633V128.633ZM164.835 134.279C164.605 134.279 164.38 134.208 164.189 134.075C163.998 133.942 163.849 133.754 163.761 133.533C163.673 133.312 163.65 133.068 163.694 132.834C163.739 132.599 163.85 132.384 164.013 132.215C164.175 132.046 164.382 131.93 164.608 131.884C164.833 131.837 165.067 131.861 165.279 131.953C165.492 132.044 165.673 132.199 165.801 132.398C165.929 132.597 165.997 132.831 165.997 133.07C165.995 133.39 165.872 133.697 165.655 133.923C165.437 134.149 165.142 134.277 164.835 134.279V134.279ZM168.674 137.734C168.444 137.736 168.218 137.666 168.026 137.534C167.834 137.402 167.684 137.214 167.595 136.993C167.506 136.772 167.482 136.528 167.526 136.293C167.57 136.058 167.681 135.842 167.843 135.672C168.005 135.503 168.212 135.387 168.438 135.34C168.664 135.292 168.898 135.316 169.111 135.407C169.323 135.498 169.505 135.654 169.633 135.853C169.761 136.052 169.83 136.286 169.83 136.525C169.83 136.845 169.708 137.151 169.492 137.378C169.275 137.604 168.981 137.733 168.674 137.734V137.734ZM174.931 138.156C174.701 138.156 174.477 138.085 174.285 137.952C174.094 137.819 173.945 137.63 173.857 137.409C173.769 137.188 173.746 136.945 173.791 136.711C173.836 136.476 173.947 136.261 174.109 136.092C174.272 135.922 174.479 135.807 174.704 135.761C174.93 135.714 175.164 135.738 175.376 135.829C175.588 135.921 175.77 136.076 175.898 136.275C176.025 136.474 176.094 136.707 176.094 136.947C176.094 137.267 175.971 137.575 175.753 137.802C175.535 138.029 175.24 138.156 174.931 138.156V138.156ZM180.91 136.525C180.679 136.525 180.454 136.454 180.263 136.321C180.072 136.188 179.923 135.998 179.835 135.777C179.747 135.556 179.725 135.312 179.77 135.077C179.815 134.843 179.927 134.627 180.09 134.458C180.253 134.289 180.461 134.175 180.687 134.129C180.913 134.083 181.147 134.108 181.359 134.2C181.571 134.293 181.752 134.449 181.879 134.649C182.006 134.849 182.073 135.083 182.072 135.323C182.072 135.481 182.042 135.638 181.983 135.784C181.925 135.931 181.839 136.064 181.731 136.175C181.623 136.287 181.495 136.376 181.354 136.436C181.213 136.496 181.062 136.526 180.91 136.525V136.525ZM186.655 134.113C186.425 134.113 186.201 134.042 186.009 133.91C185.818 133.777 185.669 133.588 185.581 133.367C185.493 133.146 185.47 132.903 185.515 132.668C185.56 132.433 185.671 132.218 185.833 132.049C185.996 131.88 186.203 131.765 186.429 131.718C186.654 131.671 186.888 131.695 187.1 131.787C187.313 131.878 187.494 132.033 187.622 132.232C187.75 132.431 187.818 132.665 187.818 132.904C187.819 133.063 187.789 133.221 187.731 133.368C187.673 133.515 187.587 133.649 187.479 133.761C187.371 133.874 187.243 133.963 187.101 134.023C186.96 134.084 186.808 134.114 186.655 134.113V134.113ZM191.418 131.045C191.188 131.045 190.963 130.974 190.772 130.841C190.581 130.708 190.432 130.519 190.344 130.298C190.256 130.077 190.233 129.834 190.278 129.6C190.323 129.365 190.433 129.15 190.596 128.981C190.759 128.811 190.966 128.696 191.191 128.65C191.417 128.603 191.65 128.627 191.863 128.718C192.075 128.81 192.257 128.965 192.385 129.164C192.512 129.363 192.58 129.596 192.58 129.836C192.58 130.156 192.458 130.464 192.24 130.691C192.022 130.918 191.726 131.045 191.418 131.045V131.045ZM225.873 94.5503C225.68 97.2316 224.817 99.8714 224.133 102.491C223.874 103.165 223.436 103.75 222.87 104.177C220.831 105.918 218.633 107.466 216.693 109.318C214.109 111.785 210.715 112.4 207.646 113.465C204.355 114.652 201.573 117.008 199.788 120.119C198.081 122.849 196.161 124.957 192.946 125.993C189.731 127.03 186.868 128.827 183.965 130.52C180.644 132.469 176.997 133.319 173.297 133.927C172.554 134.071 171.789 134.05 171.054 133.864C170.319 133.679 169.63 133.334 169.033 132.851C168.435 132.369 167.943 131.76 167.588 131.065C167.233 130.37 167.023 129.605 166.973 128.82C166.575 124.715 166.15 124.452 162.364 125.731C161.066 126.199 159.733 126.551 158.378 126.781C158.135 126.824 157.885 126.795 157.656 126.699C157.427 126.602 157.229 126.441 157.084 126.233C156.938 126.026 156.851 125.781 156.832 125.525C156.813 125.269 156.863 125.012 156.976 124.784C157.52 123.609 158.242 122.533 159.115 121.598C161.327 119.401 163.473 117.017 166.017 115.31C173.217 110.472 179.07 104.018 185.579 98.358C186.117 97.8881 186.635 97.4044 187.14 96.8999C188.748 95.2966 190.461 94.9719 192.388 96.3263C194.278 97.6056 196.515 98.2141 198.765 98.0609C199.622 98.0609 200.498 97.971 200.698 96.8584C200.917 95.6007 200.14 94.9096 199.163 94.6194C197.715 94.1909 196.207 93.9974 194.733 93.6588C194.193 93.5374 193.671 93.3447 193.178 93.0853C192.042 92.4702 191.89 91.5235 192.893 90.6873C196.493 87.7157 200.306 85.684 205.188 87.1422C208.541 88.1458 212.022 88.6118 215.511 88.5243C216.624 88.5326 217.721 88.2481 218.7 87.6972C219.679 87.1463 220.508 86.3468 221.11 85.3731C222.293 83.5832 223.435 81.7657 225.016 79.3194C225.488 80.819 225.919 81.5792 225.933 82.3462C226.006 86.4096 226.185 90.4938 225.893 94.5365L225.873 94.5503ZM267.575 132.545C267.344 132.546 267.119 132.476 266.926 132.344C266.734 132.211 266.584 132.023 266.496 131.801C266.407 131.58 266.383 131.336 266.428 131.101C266.472 130.866 266.583 130.65 266.746 130.48C266.909 130.311 267.117 130.195 267.343 130.149C267.569 130.102 267.803 130.127 268.016 130.219C268.229 130.312 268.41 130.468 268.537 130.668C268.665 130.868 268.732 131.102 268.731 131.342C268.731 131.661 268.609 131.967 268.392 132.192C268.175 132.418 267.881 132.545 267.575 132.545ZM272.331 135.613C272.101 135.613 271.876 135.542 271.685 135.409C271.494 135.276 271.345 135.087 271.257 134.866C271.169 134.645 271.146 134.402 271.191 134.168C271.236 133.933 271.346 133.718 271.509 133.548C271.671 133.379 271.879 133.264 272.104 133.217C272.33 133.171 272.563 133.195 272.776 133.286C272.988 133.378 273.17 133.533 273.297 133.732C273.425 133.931 273.493 134.164 273.493 134.404C273.493 134.724 273.371 135.032 273.153 135.259C272.935 135.485 272.639 135.613 272.331 135.613V135.613ZM278.083 138.032C277.853 138.032 277.629 137.961 277.438 137.828C277.246 137.695 277.097 137.506 277.009 137.285C276.921 137.064 276.898 136.821 276.943 136.586C276.988 136.352 277.099 136.136 277.261 135.967C277.424 135.798 277.631 135.683 277.857 135.636C278.082 135.589 278.316 135.613 278.528 135.705C278.741 135.797 278.922 135.952 279.05 136.15C279.178 136.349 279.246 136.583 279.246 136.822C279.246 137.143 279.123 137.451 278.905 137.677C278.687 137.904 278.392 138.032 278.083 138.032V138.032ZM284.062 139.656C283.831 139.656 283.606 139.584 283.415 139.451C283.224 139.318 283.075 139.129 282.987 138.907C282.899 138.686 282.877 138.443 282.922 138.208C282.967 137.973 283.079 137.758 283.242 137.589C283.405 137.42 283.613 137.305 283.839 137.259C284.065 137.213 284.299 137.238 284.511 137.331C284.723 137.424 284.904 137.58 285.031 137.779C285.158 137.979 285.225 138.214 285.224 138.453C285.224 138.612 285.194 138.769 285.135 138.915C285.077 139.061 284.991 139.194 284.883 139.306C284.775 139.418 284.647 139.506 284.506 139.566C284.365 139.626 284.214 139.656 284.062 139.656V139.656ZM290.319 139.241C290.089 139.241 289.864 139.17 289.673 139.037C289.482 138.904 289.333 138.715 289.245 138.494C289.157 138.273 289.134 138.03 289.179 137.796C289.224 137.561 289.334 137.346 289.497 137.176C289.659 137.007 289.867 136.892 290.092 136.846C290.318 136.799 290.551 136.823 290.764 136.914C290.976 137.006 291.158 137.161 291.285 137.36C291.413 137.559 291.481 137.792 291.481 138.032C291.48 138.352 291.357 138.658 291.139 138.885C290.921 139.111 290.627 139.239 290.319 139.241V139.241ZM294.158 135.786C293.928 135.787 293.703 135.717 293.511 135.585C293.319 135.453 293.169 135.265 293.08 135.044C292.991 134.823 292.967 134.58 293.011 134.345C293.055 134.11 293.165 133.894 293.327 133.724C293.49 133.554 293.697 133.438 293.922 133.391C294.148 133.344 294.382 133.367 294.595 133.458C294.808 133.55 294.99 133.705 295.118 133.904C295.246 134.103 295.314 134.337 295.314 134.576C295.314 134.896 295.193 135.202 294.976 135.429C294.759 135.656 294.465 135.784 294.158 135.786V135.786ZM295.952 131.356C295.722 131.356 295.497 131.285 295.306 131.152C295.115 131.019 294.966 130.83 294.878 130.609C294.79 130.388 294.767 130.145 294.812 129.911C294.857 129.676 294.967 129.461 295.13 129.291C295.292 129.122 295.5 129.007 295.725 128.961C295.95 128.914 296.184 128.938 296.397 129.029C296.609 129.121 296.791 129.276 296.918 129.475C297.046 129.674 297.114 129.907 297.114 130.147C297.114 130.467 296.992 130.775 296.774 131.002C296.556 131.229 296.26 131.356 295.952 131.356V131.356ZM299.32 126.795C297.991 126.415 296.749 125.717 295.434 125.289C292.777 124.418 291.84 125.088 291.614 127.935C291.614 128.226 291.614 128.516 291.614 128.806C291.262 132.89 288.711 134.97 284.786 134.113C282.337 133.617 279.943 132.867 277.638 131.874C272.69 129.649 268.053 126.726 262.918 124.895C261.962 124.549 261.158 123.513 260.481 122.628C259.444 121.28 258.68 119.698 257.618 118.378C254.861 114.923 252.695 113.61 248.046 112.013C244.06 110.631 240.739 107.991 237.278 105.621C236.231 104.877 235.361 103.892 234.737 102.743C234.113 101.594 233.751 100.311 233.678 98.9938C233.512 94.4674 231.459 90.0101 233.246 85.3385C233.817 83.8458 233.339 81.9178 233.339 79.43C234.389 80.4044 235.026 80.8121 235.405 81.3926C236.029 82.3393 236.388 83.4657 237.019 84.4194C238.759 87.0247 240.839 88.8698 244.273 88.6072C247.707 88.3446 250.915 88.4552 254.19 87.3702C257.651 86.2162 263.656 87.8816 266.193 90.4109C267.455 91.6686 267.389 92.6154 265.927 93.4792C264.134 94.5503 262.321 95.5523 260.374 96.6857C261.703 98.4617 262.945 98.2267 264.174 97.8398C265.23 97.5011 266.24 96.9897 267.302 96.6442C269.548 95.9117 271.846 95.0824 273.281 98.0263C278.13 101.696 281.252 107.273 286.48 110.597C288.908 112.219 291.225 114.016 293.414 115.973C295.865 118.095 298.177 120.389 300.522 122.642C300.972 122.988 301.309 123.471 301.485 124.024C301.637 124.839 301.537 125.683 301.199 126.436C300.967 126.823 299.871 126.94 299.306 126.774L299.32 126.795ZM301.007 132.538C300.777 132.538 300.552 132.467 300.36 132.333C300.169 132.2 300.02 132.011 299.932 131.79C299.844 131.568 299.822 131.325 299.867 131.09C299.913 130.855 300.024 130.64 300.187 130.471C300.35 130.302 300.558 130.187 300.784 130.141C301.01 130.096 301.244 130.12 301.456 130.213C301.669 130.306 301.85 130.462 301.977 130.662C302.103 130.861 302.171 131.096 302.169 131.335C302.167 131.655 302.044 131.961 301.826 132.186C301.609 132.411 301.314 132.538 301.007 132.538V132.538ZM304.74 128.917C304.51 128.917 304.285 128.846 304.094 128.713C303.903 128.58 303.754 128.391 303.666 128.17C303.578 127.949 303.555 127.706 303.6 127.471C303.645 127.237 303.755 127.021 303.918 126.852C304.08 126.683 304.288 126.568 304.513 126.521C304.739 126.474 304.972 126.498 305.185 126.59C305.397 126.681 305.579 126.836 305.706 127.035C305.834 127.234 305.902 127.468 305.902 127.707C305.903 127.866 305.874 128.024 305.816 128.171C305.758 128.318 305.672 128.452 305.564 128.564C305.456 128.677 305.327 128.766 305.186 128.826C305.044 128.887 304.893 128.917 304.74 128.917" fill="#7F594C"/>
<path d="M25.1605 5.48008L17.1097 19.9923V30.3581C18.0062 30.3117 18.9039 30.4191 19.7668 30.676C20.179 30.8499 20.526 31.1579 20.7559 31.5541C20.9858 31.9502 21.0862 32.4131 21.0421 32.8736C21.0562 33.2171 20.9967 33.5596 20.8681 33.8763C20.7394 34.193 20.5448 34.476 20.2982 34.7049C19.7879 35.1683 19.1287 35.415 18.4515 35.3959H10.5536C9.87644 35.415 9.21721 35.1683 8.70693 34.7049C8.46033 34.476 8.26568 34.193 8.13702 33.8763C8.00836 33.5596 7.94891 33.2171 7.96297 32.8736C7.92155 32.4063 8.02922 31.9379 8.26935 31.5407C8.50948 31.1434 8.86871 30.8396 9.29148 30.676C10.1538 30.4163 11.052 30.3088 11.9485 30.3581V20.1858L3.77815 5.48008C2.91312 5.53136 2.04676 5.40694 1.22742 5.1138C0.825636 4.94355 0.488239 4.64158 0.266449 4.25369C0.0446585 3.8658 -0.0494126 3.41319 -0.0014586 2.96462C-0.015513 2.62111 0.0439336 2.27865 0.172592 1.96195C0.30125 1.64525 0.495906 1.36225 0.742503 1.13335C1.24904 0.667939 1.90702 0.420822 2.5825 0.442289H8.67371C9.34919 0.420822 10.0072 0.667939 10.5137 1.13335C10.7603 1.36225 10.955 1.64525 11.0836 1.96195C11.2123 2.27865 11.2717 2.62111 11.2577 2.96462C11.2715 3.30683 11.2133 3.64805 11.0871 3.96439C10.9609 4.28072 10.7697 4.56455 10.527 4.79594C10.0255 5.25641 9.3756 5.50318 8.70693 5.487H9.72324L14.4793 14.0837L19.2154 5.48008H20.1919C19.5232 5.49626 18.8733 5.24949 18.3718 4.78902C18.1291 4.55763 17.9379 4.27381 17.8117 3.95747C17.6855 3.64113 17.6273 3.29991 17.6411 2.9577C17.6271 2.61419 17.6865 2.27173 17.8152 1.95503C17.9439 1.63833 18.1385 1.35533 18.3851 1.12643C18.8916 0.661022 19.5496 0.413905 20.2251 0.435372H26.3163C26.9918 0.413905 27.6498 0.661022 28.1563 1.12643C28.4037 1.35499 28.5994 1.63778 28.7292 1.95444C28.859 2.2711 28.9197 2.61372 28.9069 2.9577C28.9504 3.40041 28.859 3.84615 28.6456 4.23184C28.4323 4.61753 28.1077 4.92369 27.7179 5.10692C26.8963 5.40044 26.0277 5.52481 25.1605 5.47316" fill="#7F594C"/>
<path d="M44.4169 35.3821H41.4211C40.3051 35.3821 39.5612 35.0158 39.1759 34.2833C37.536 35.3278 35.645 35.867 33.7224 35.8382C31.6186 35.895 29.5435 35.3217 27.7441 34.1865C26.8421 33.6443 26.0968 32.8598 25.5861 31.9152C25.0754 30.9706 24.8182 29.9005 24.8413 28.817C24.8497 27.3205 25.2642 25.8569 26.0369 24.5946C26.7791 23.3067 27.8508 22.2588 29.1324 21.5679C31.5591 20.2825 34.7918 19.7181 38.8305 19.8748C38.8305 17.7601 37.3691 16.7028 34.4464 16.7028C33.9238 16.7098 33.4111 16.8518 32.9543 17.1159C32.4975 17.3801 32.1109 17.7582 31.8292 18.2162C31.1185 19.2251 30.3812 19.7296 29.6106 19.7296C28.9713 19.7424 28.3464 19.5306 27.8371 19.1284C27.5914 18.9398 27.3944 18.691 27.2634 18.404C27.1325 18.1171 27.0717 17.8009 27.0865 17.4837C27.0988 17.1517 27.1733 16.8254 27.3057 16.5231C28.4482 13.5285 30.8085 12.0335 34.3866 12.0382C36.2618 12.0244 38.1146 12.462 39.8003 13.3166C42.6167 14.754 44.0249 17.6219 44.0249 21.9203V30.4825C46.0177 30.4825 47.0141 31.2495 47.0141 32.7699C47.0256 33.1202 46.9651 33.469 46.8369 33.7931C46.7086 34.1172 46.5154 34.4092 46.2701 34.6496C45.7722 35.1387 45.108 35.4021 44.4235 35.3821H44.4169ZM38.8305 24.8987C38.3324 24.836 37.831 24.806 37.3293 24.8089C32.4581 24.8089 30.0225 26.1357 30.0225 28.7894C30.0225 30.1715 31.351 30.8625 34.0744 30.8625C35.1578 30.8957 36.2316 30.6438 37.1964 30.13C37.6858 29.8995 38.1002 29.526 38.3892 29.0548C38.6781 28.5836 38.8291 28.0352 38.8238 27.4764V26.2117C38.7969 25.7699 38.7969 25.3268 38.8238 24.8849" fill="#7F594C"/>
<path d="M69.1892 35.3821H63.1578C62.4815 35.3959 61.8241 35.1498 61.3112 34.6911C61.0635 34.4676 60.8678 34.1885 60.739 33.8748C60.6101 33.5612 60.5514 33.2212 60.5672 32.8805C60.5672 31.2358 61.5791 30.4134 63.6028 30.4134V21.5126C63.5921 20.4529 63.2067 19.4345 62.5201 18.6516C62.1568 18.1763 61.6796 17.809 61.1364 17.5866C60.5932 17.3643 60.0033 17.2949 59.4261 17.3852C58.8488 17.4756 58.3047 17.7227 57.8485 18.1015C57.3923 18.4804 57.0401 18.9775 56.8275 19.5431C56.2535 20.8412 55.9805 22.2614 56.0303 23.6894V30.4687C58.2047 30.4687 59.2896 31.291 59.2852 32.9358C59.3017 33.2772 59.2426 33.6181 59.1125 33.932C58.9823 34.2459 58.7846 34.5245 58.5346 34.7463C58.0196 35.2061 57.3598 35.4522 56.6813 35.4374H50.63C49.9515 35.4522 49.2916 35.2061 48.7767 34.7463C48.5266 34.5245 48.3289 34.2459 48.1988 33.932C48.0687 33.6181 48.0096 33.2772 48.0261 32.9358C48.0261 31.291 48.9649 30.4687 50.8425 30.4687V17.7602C48.8409 17.7602 47.8423 16.9355 47.8467 15.2862C47.8327 14.9451 47.8929 14.605 48.0229 14.2915C48.1529 13.978 48.3492 13.6991 48.5973 13.4756C49.1102 13.0168 49.7677 12.7708 50.444 12.7846H53.4331C53.8399 12.7484 54.2494 12.8079 54.6311 12.9586C55.0128 13.1093 55.3571 13.3475 55.6384 13.6553C56.8746 12.8378 58.3054 12.3951 59.7701 12.3768H59.9494C61.1488 12.3486 62.3408 12.5798 63.4499 13.0556C64.559 13.5314 65.5611 14.2415 66.3927 15.141C68.0465 17.0611 68.9099 19.5798 68.7973 22.1553V30.448C70.7945 30.448 71.7931 31.2703 71.7931 32.915C71.8081 33.2563 71.7484 33.5966 71.6183 33.9103C71.4883 34.224 71.2914 34.5028 71.0425 34.7256C70.5296 35.1844 69.8722 35.4304 69.1959 35.4167" fill="#7F594C"/>
<path d="M91.8065 35.3821H88.8107C87.6948 35.3821 86.9508 35.0158 86.5655 34.2833C84.9257 35.3278 83.0346 35.867 81.112 35.8382C79.0083 35.895 76.9332 35.3217 75.1337 34.1865C74.2317 33.6443 73.4864 32.8598 72.9757 31.9152C72.4651 30.9706 72.2078 29.9005 72.2309 28.817C72.2394 27.3205 72.6538 25.8569 73.4266 24.5946C74.1687 23.3067 75.2404 22.2588 76.522 21.5679C78.9443 20.2825 82.177 19.7181 86.2201 19.8748C86.2201 17.7601 84.7588 16.7028 81.836 16.7028C81.3133 16.7092 80.8004 16.8509 80.3434 17.1151C79.8865 17.3793 79.5001 17.7577 79.2189 18.2162C78.5081 19.2251 77.7708 19.7296 77.0003 19.7296C76.3609 19.7424 75.7361 19.5306 75.2267 19.1284C74.981 18.9398 74.784 18.691 74.653 18.404C74.5221 18.1171 74.4613 17.8009 74.4761 17.4837C74.4885 17.1517 74.5629 16.8254 74.6953 16.5231C75.8378 13.5285 78.1981 12.0335 81.7763 12.0382C83.6514 12.0244 85.5042 12.462 87.1899 13.3166C90.0064 14.754 91.4146 17.6219 91.4146 21.9203V30.4825C93.4073 30.4825 94.4037 31.2495 94.4037 32.7699C94.4152 33.1202 94.3548 33.469 94.2265 33.7931C94.0982 34.1172 93.905 34.4092 93.6598 34.6496C93.1618 35.1387 92.4977 35.4021 91.8131 35.3821H91.8065ZM86.2201 24.8987C85.7282 24.8438 85.2335 24.8208 84.7388 24.8296C79.8676 24.8296 77.432 26.1565 77.432 28.8101C77.432 30.1922 78.7605 30.8833 81.484 30.8833C82.5673 30.9165 83.6412 30.6645 84.606 30.1508C85.0954 29.9203 85.5098 29.5467 85.7987 29.0756C86.0877 28.6044 86.2387 28.056 86.2334 27.4971V26.2117C86.2065 25.7699 86.2065 25.3268 86.2334 24.8849" fill="#7F594C"/>
<path d="M133.108 6.27481C132.982 2.66059 132.57 2.19758 129.455 2.12847C125.895 2.07319 122.341 2.12847 118.78 2.12847C115.22 2.12847 111.66 2.06628 108.099 2.12847C105.901 2.17685 105.442 2.68821 105.349 5.05163C105.256 7.41504 105.283 9.76462 105.349 12.1211C105.396 13.6829 106.273 15.0029 107.648 14.989C108.923 14.989 109.707 14.2081 109.86 12.3906C109.899 11.8862 109.939 11.2435 109.972 10.7459C110.212 7.62235 112.045 7.21463 113.466 7.24918C115.811 7.30447 116.715 8.51382 116.755 11.3955V30.7451C115.857 30.6862 114.957 30.7963 114.097 31.0699C113.669 31.2242 113.303 31.526 113.062 31.9256C112.82 32.3252 112.717 32.7986 112.769 33.2675C112.758 33.6027 112.815 33.9367 112.936 34.2475C113.057 34.5583 113.24 34.839 113.473 35.0711C113.713 35.306 113.996 35.4883 114.306 35.607C114.615 35.7257 114.944 35.7785 115.273 35.7622H123.331C123.66 35.7785 123.989 35.7257 124.298 35.607C124.607 35.4883 124.891 35.306 125.131 35.0711C125.363 34.839 125.546 34.5583 125.668 34.2475C125.789 33.9367 125.846 33.6027 125.835 33.2675C125.89 32.8054 125.795 32.3373 125.563 31.9386C125.332 31.54 124.978 31.234 124.56 31.0699C123.699 30.8013 122.8 30.6914 121.902 30.7451V11.3126C121.889 10.9504 121.902 10.5877 121.942 10.2276C122.248 8.28577 123.317 7.21462 125.011 7.24227C126.705 7.26991 127.735 8.22359 128.04 10.2069C128.169 11.3191 128.362 12.4221 128.618 13.5102C128.785 14.0468 129.119 14.5099 129.568 14.8256C130.017 15.1413 130.555 15.2912 131.096 15.2516C131.663 15.1954 132.188 14.9129 132.559 14.4632C132.931 14.0136 133.12 13.4318 133.089 12.8399C133.128 10.6492 133.168 8.45855 133.089 6.27481" fill="#7F594C"/>
<path d="M144.457 35.3338H137.947C137.27 35.3529 136.611 35.1062 136.101 34.6427C135.853 34.4142 135.658 34.1314 135.528 33.8147C135.398 33.4981 135.337 33.1554 135.35 32.8114C135.35 31.1321 136.44 30.2959 138.605 30.2959V17.2972C136.32 17.2972 135.177 16.4587 135.177 14.7818C135.165 14.4353 135.225 14.0902 135.353 13.7703C135.481 13.4504 135.675 13.1636 135.921 12.9297C136.431 12.461 137.095 12.2136 137.775 12.2387H141.202C142.934 12.2387 143.8 13.0794 143.8 14.761V30.3236C145.969 30.3236 147.054 31.1621 147.054 32.8391C147.068 33.1826 147.009 33.525 146.88 33.8417C146.752 34.1584 146.557 34.4414 146.31 34.6703C145.797 35.1336 145.136 35.3802 144.457 35.3614V35.3338ZM143.793 5.72197C143.793 5.17525 143.637 4.64085 143.345 4.18628C143.053 3.7317 142.638 3.37739 142.153 3.16817C141.667 2.95895 141.133 2.90422 140.617 3.01088C140.102 3.11754 139.629 3.38077 139.257 3.76736C138.885 4.15394 138.632 4.6465 138.53 5.18271C138.427 5.71892 138.48 6.27471 138.681 6.77981C138.882 7.28491 139.223 7.71663 139.66 8.02037C140.097 8.32411 140.61 8.48619 141.136 8.48619C141.841 8.48619 142.516 8.19496 143.015 7.67657C143.513 7.15818 143.793 6.45508 143.793 5.72197Z" fill="#7F594C"/>
<path d="M156.584 35.5619C155.598 35.6059 154.617 35.3901 153.732 34.9347C152.848 34.4793 152.088 33.7989 151.523 32.9566C150.391 31.235 149.821 29.1808 149.895 27.0965V17.4838C147.429 17.4838 146.198 16.6453 146.202 14.9684C146.202 13.2546 147.431 12.4046 149.895 12.4046V8.32733C149.883 7.98335 149.943 7.64068 150.073 7.32403C150.203 7.00737 150.399 6.72458 150.646 6.49602C151.168 6.05374 151.82 5.81226 152.493 5.81226C153.165 5.81226 153.818 6.05374 154.339 6.49602C154.587 6.72458 154.782 7.00737 154.912 7.32403C155.042 7.64068 155.103 7.98335 155.09 8.32733V12.3908C156.235 12.3604 157.382 12.3904 158.524 12.4806C159.09 12.5568 159.605 12.8559 159.965 13.3162C160.325 13.7766 160.501 14.3631 160.457 14.9546C160.495 15.5396 160.316 16.1174 159.956 16.5688C159.596 17.0202 159.084 17.3106 158.524 17.3802C157.382 17.4703 156.235 17.5003 155.09 17.47V27.0826C155.09 29.37 155.694 30.4412 156.897 30.5379C158.889 30.6623 158.557 28.983 158.723 28.0225C158.762 27.7521 158.852 27.4924 158.988 27.2583C159.124 27.0243 159.303 26.8205 159.514 26.6586C159.726 26.4968 159.966 26.38 160.222 26.3152C160.477 26.2504 160.742 26.2388 161.002 26.281C164.051 26.4192 162.789 31.9546 162.503 32.5973C161.507 34.857 159.374 35.5688 156.584 35.5688" fill="#7F594C"/>
<path d="M174.207 35.7967C172.765 35.8431 171.33 35.5574 170.006 34.9601C168.682 34.3628 167.502 33.4686 166.548 32.3414C164.635 30.0474 163.628 27.0841 163.732 24.0487C163.636 20.9727 164.658 17.9721 166.595 15.6455C167.546 14.5338 168.721 13.6554 170.038 13.0734C171.354 12.4915 172.778 12.2205 174.207 12.28C175.656 12.2304 177.097 12.5143 178.428 13.1116C179.759 13.7089 180.947 14.6049 181.906 15.7353C183.72 18.087 184.709 21.0124 184.709 24.028C184.709 27.0436 183.72 29.969 181.906 32.3207C180.947 33.4511 179.759 34.347 178.428 34.9443C177.097 35.5416 175.656 35.8256 174.207 35.776V35.7967ZM174.207 30.828C175.009 30.8546 175.805 30.6764 176.525 30.309C177.245 29.9416 177.868 29.3961 178.339 28.7203C179.231 27.3328 179.708 25.7009 179.708 24.0314C179.708 22.3619 179.231 20.7301 178.339 19.3426C177.854 18.6874 177.232 18.1567 176.519 17.7916C175.806 17.4264 175.022 17.2365 174.227 17.2365C173.432 17.2365 172.648 17.4264 171.936 17.7916C171.223 18.1567 170.6 18.6874 170.115 19.3426C169.223 20.7301 168.746 22.3619 168.746 24.0314C168.746 25.7009 169.223 27.3328 170.115 28.7203C170.579 29.3932 171.195 29.9374 171.909 30.3049C172.622 30.6724 173.411 30.852 174.207 30.828" fill="#7F594C"/>
<path d="M205.352 17.8016L198.929 33.8134C198.742 34.3102 198.405 34.7305 197.969 35.011C197.533 35.2914 197.021 35.4168 196.511 35.3683C196.001 35.409 195.493 35.2803 195.058 35.0009C194.624 34.7214 194.286 34.3056 194.093 33.8134L187.696 17.8016C185.482 17.8016 184.375 16.9792 184.375 15.3345C184.358 14.9931 184.417 14.6523 184.547 14.3384C184.678 14.0244 184.875 13.7458 185.125 13.524C185.64 13.0641 186.3 12.8181 186.979 12.8329H193.01C193.689 12.8181 194.348 13.0641 194.863 13.524C195.101 13.7554 195.291 14.0352 195.421 14.3461C195.55 14.6569 195.617 14.9922 195.617 15.3311C195.617 15.6699 195.55 16.0052 195.421 16.3161C195.291 16.6269 195.101 16.9067 194.863 17.1382C194.338 17.5976 193.67 17.8431 192.984 17.8292H193.236L196.524 26.6126L199.845 17.85H200.098C199.411 17.8639 198.743 17.6184 198.218 17.1589C197.98 16.9275 197.79 16.6476 197.661 16.3368C197.531 16.0259 197.464 15.6907 197.464 15.3518C197.464 15.0129 197.531 14.6777 197.661 14.3668C197.79 14.056 197.98 13.7761 198.218 13.5447C198.733 13.0849 199.393 12.8388 200.071 12.8536H206.122C206.803 12.8397 207.464 13.0855 207.982 13.5447C208.231 13.7675 208.428 14.0463 208.558 14.36C208.688 14.6737 208.748 15.014 208.733 15.3552C208.733 17 207.626 17.8223 205.412 17.8223" fill="#7F594C"/>
<path d="M228.016 35.3821H225.021C223.905 35.3821 223.161 35.0158 222.776 34.2833C221.136 35.3289 219.245 35.8682 217.322 35.8382C215.218 35.895 213.143 35.3217 211.344 34.1865C210.442 33.6443 209.696 32.8598 209.186 31.9152C208.675 30.9706 208.418 29.9005 208.441 28.817C208.449 27.3205 208.864 25.8569 209.637 24.5946C210.381 23.3062 211.455 22.2583 212.739 21.5679C215.157 20.2825 218.387 19.7181 222.43 19.8748C222.43 17.7601 220.969 16.7028 218.046 16.7028C217.523 16.7098 217.011 16.8518 216.554 17.1159C216.097 17.3801 215.71 17.7582 215.429 18.2162C214.718 19.2251 213.981 19.7296 213.21 19.7296C212.571 19.7424 211.946 19.5306 211.437 19.1284C211.192 18.9385 210.996 18.6895 210.865 18.4028C210.735 18.1162 210.673 17.8007 210.686 17.4837C210.698 17.1517 210.773 16.8254 210.905 16.5231C212.048 13.5285 214.408 12.0335 217.986 12.0382C219.861 12.0244 221.714 12.462 223.4 13.3166C226.216 14.754 227.625 17.6219 227.625 21.9203V30.4825C229.617 30.4825 230.62 31.2495 230.62 32.7699C230.631 33.1206 230.569 33.4697 230.439 33.7938C230.31 34.1178 230.116 34.4096 229.87 34.6496C229.372 35.1387 228.708 35.4021 228.023 35.3821H228.016ZM222.43 24.8987C221.925 24.8421 221.417 24.819 220.909 24.8296C216.038 24.8296 213.602 26.1565 213.602 28.8101C213.602 30.1922 214.951 30.8833 217.647 30.8833C218.731 30.9174 219.805 30.6654 220.769 30.1508C221.259 29.9203 221.673 29.5467 221.962 29.0756C222.251 28.6044 222.402 28.056 222.397 27.4971V26.2117C222.37 25.7699 222.37 25.3268 222.397 24.8849" fill="#7F594C"/>
<path d="M249.004 35.7001C246.993 35.7024 244.997 35.3303 243.112 34.6013C242.839 34.8791 242.514 35.096 242.158 35.2386C241.802 35.3812 241.421 35.4465 241.04 35.4306C239.401 35.4306 238.58 34.6198 238.575 32.9981V28.4233C238.575 27.1425 239.412 26.5021 241.086 26.5021C242.169 26.5021 242.899 26.744 243.265 27.2346C243.68 27.947 243.842 28.7881 243.723 29.6119C245.36 30.6135 247.239 31.1074 249.137 31.0355C251.834 31.0355 253.189 30.2062 253.189 28.5615C253.189 27.1794 251.251 26.1866 247.377 25.583C245.526 25.3113 243.753 24.6252 242.182 23.572C240.335 22.259 239.412 20.7018 239.412 18.9005C239.412 17.0162 240.322 15.4153 242.142 14.0976C243.665 12.9071 245.518 12.2644 247.423 12.2664C249.144 12.2703 250.842 12.6765 252.392 13.455C252.902 13.2096 253.457 13.0846 254.019 13.0887C255.631 13.0887 256.439 13.8673 256.444 15.4245V19.5708C256.449 19.8585 256.375 20.1417 256.23 20.3868C256.085 20.6319 255.876 20.8284 255.627 20.953C255.081 21.2632 254.468 21.4226 253.846 21.4159C253.464 21.4629 253.077 21.4217 252.712 21.2951C252.346 21.1685 252.013 20.9596 251.734 20.6834C251.345 20.0263 251.174 19.2539 251.249 18.4859C250.117 17.5493 248.71 17.0466 247.264 17.0623C246.703 17.0464 246.15 17.2052 245.676 17.5184C245.43 17.6761 245.227 17.898 245.088 18.1623C244.95 18.4265 244.88 18.7239 244.886 19.0249C244.886 19.7574 245.975 20.2895 248.14 20.6281C250.453 20.9452 252.674 21.7696 254.657 23.0468C257.061 24.604 258.264 26.4768 258.264 28.6651C258.264 30.9687 257.223 32.7631 255.142 34.0485C253.271 35.1758 251.138 35.7449 248.977 35.6932" fill="#7F594C"/>
<path d="M306.343 5.48016L299.614 33.4541C299.315 34.6704 298.472 35.2854 297.09 35.2854C295.709 35.2854 294.958 34.7395 294.606 33.6476L288.508 11.3472L282.397 33.6338C282.047 34.7303 281.228 35.2808 279.939 35.2854C278.564 35.2854 277.727 34.6704 277.435 33.4541L270.733 5.53546C268.563 5.53546 267.476 4.69697 267.471 3.02C267.459 2.67209 267.521 2.32567 267.65 2.00472C267.78 1.68376 267.975 1.39593 268.222 1.16106C268.73 0.693988 269.391 0.446756 270.068 0.469999H276.233C276.918 0.436233 277.588 0.684484 278.099 1.16106C278.34 1.39822 278.529 1.68618 278.654 2.0056C278.779 2.32502 278.836 2.66853 278.823 3.01308C278.823 4.69235 277.9 5.53546 276.04 5.53546L280.318 23.2956L286.084 2.09397C286.433 0.992882 287.255 0.44464 288.548 0.449248C289.876 0.449248 290.66 1.0021 291.012 2.10088L296.844 23.3993L301.096 5.52854C299.218 5.52854 298.277 4.69005 298.273 3.01308C298.261 2.6662 298.322 2.32087 298.452 2.00105C298.581 1.68122 298.776 1.39458 299.023 1.16106C299.531 0.693988 300.192 0.446756 300.87 0.469999H307.027C307.714 0.439578 308.386 0.687277 308.901 1.16106C309.141 1.39395 309.33 1.6782 309.455 1.9943C309.58 2.31039 309.638 2.65087 309.625 2.99237C309.625 4.65552 308.54 5.48708 306.37 5.48708" fill="#7F594C"/>
<path d="M316.949 35.7967C315.507 35.8431 314.072 35.5574 312.748 34.9601C311.424 34.3628 310.243 33.4686 309.29 32.3414C307.379 30.0456 306.373 27.0835 306.474 24.0487C306.378 20.9727 307.4 17.9721 309.337 15.6455C310.287 14.5338 311.463 13.6554 312.779 13.0734C314.096 12.4915 315.52 12.2205 316.949 12.28C318.398 12.2304 319.839 12.5143 321.17 13.1116C322.501 13.7089 323.688 14.6049 324.648 15.7353C326.462 18.087 327.451 21.0124 327.451 24.028C327.451 27.0436 326.462 29.969 324.648 32.3207C323.688 33.4511 322.501 34.347 321.17 34.9443C319.839 35.5416 318.398 35.8256 316.949 35.776V35.7967ZM316.949 30.828C317.752 30.854 318.548 30.6755 319.269 30.3082C319.991 29.9408 320.615 29.3957 321.087 28.7203C321.975 27.3311 322.449 25.6998 322.449 24.0314C322.449 22.363 321.975 20.7317 321.087 19.3426C320.615 18.6671 319.991 18.122 319.269 17.7547C318.548 17.3874 317.752 17.2089 316.949 17.2349C316.153 17.2115 315.364 17.3914 314.651 17.7588C313.937 18.1263 313.322 18.6701 312.857 19.3426C311.969 20.7317 311.495 22.363 311.495 24.0314C311.495 25.6998 311.969 27.3311 312.857 28.7203C313.322 29.3928 313.937 29.9366 314.651 30.304C315.364 30.6715 316.153 30.8514 316.949 30.828" fill="#7F594C"/>
<path d="M343.222 14.9406C343.222 17.2142 340.771 17.4837 339.748 17.4837C339.244 17.4685 338.744 17.5783 338.288 17.8043C337.833 18.0302 337.437 18.3657 337.131 18.7829C336.477 19.628 336.127 20.6837 336.141 21.7682V30.441C337.003 30.3913 337.866 30.4989 338.692 30.7589C339.102 30.9209 339.45 31.2194 339.68 31.6081C339.911 31.9967 340.012 32.4537 339.967 32.9081C339.982 33.2493 339.922 33.5896 339.792 33.9033C339.662 34.217 339.465 34.4958 339.217 34.7186C338.704 35.1774 338.046 35.4234 337.37 35.4097H330.681C330.005 35.4234 329.347 35.1774 328.834 34.7186C328.585 34.4958 328.388 34.217 328.258 33.9033C328.128 33.5896 328.069 33.2493 328.084 32.9081C328.084 31.2634 329.038 30.441 330.947 30.441V17.7601C328.954 17.7601 327.957 16.9354 327.957 15.2861C327.942 14.9455 328.001 14.6056 328.13 14.2921C328.259 13.9785 328.454 13.6994 328.701 13.4756C329.214 13.0168 329.872 12.7707 330.548 12.7845H333.544C333.954 12.7441 334.368 12.8065 334.75 12.9664C335.133 13.1263 335.473 13.3791 335.743 13.7036C336.94 12.8696 338.347 12.4224 339.788 12.4182C341.402 12.4182 343.222 13.1093 343.222 14.913" fill="#7F594C"/>
<path d="M363.955 35.3338H357.903C357.221 35.3606 356.555 35.1132 356.043 34.6427C355.797 34.4075 355.603 34.1194 355.475 33.7985C355.346 33.4775 355.287 33.1312 355.3 32.7838C355.273 32.3172 355.403 31.8555 355.667 31.4774C355.931 31.0992 356.313 30.8282 356.748 30.7106L353.626 25.1822L350.969 28.0639C350.998 28.4466 350.985 28.8316 350.929 29.211C350.929 29.8192 350.882 30.2062 350.882 30.3582C352.968 30.3582 354.004 31.1944 354.004 32.8736C354.018 33.2172 353.959 33.5596 353.83 33.8763C353.702 34.193 353.507 34.476 353.26 34.7049C352.75 35.1684 352.091 35.4151 351.414 35.396H345.435C344.758 35.4192 344.097 35.172 343.589 34.7049C343.34 34.4776 343.143 34.195 343.013 33.8781C342.883 33.5611 342.823 33.2179 342.838 32.8736C342.838 31.1967 343.85 30.3582 345.874 30.3582V5.72199C343.85 5.72199 342.838 4.88123 342.838 3.19966C342.824 2.85554 342.885 2.51257 343.015 2.19576C343.144 1.87895 343.341 1.59628 343.589 1.36834C344.097 0.901272 344.758 0.65404 345.435 0.677283H348.451C350.178 0.677283 351.048 1.51347 351.048 3.19274V21.0911L354.961 16.696C354.629 16.4662 354.353 16.1594 354.155 15.7996C353.956 15.4397 353.841 15.0369 353.818 14.6228C353.818 13.0057 354.73 12.1972 356.555 12.1972H362.533C363.2 12.171 363.849 12.4193 364.34 12.8882C364.574 13.115 364.759 13.3916 364.882 13.6993C365.005 14.0069 365.062 14.3384 365.051 14.6712C365.1 15.151 364.996 15.6343 364.756 16.0473C364.516 16.4603 364.153 16.7803 363.722 16.9586C362.836 17.2245 361.913 17.332 360.992 17.2765L356.814 21.6301L362.128 30.2822C363.09 30.2325 364.053 30.3232 364.991 30.5517C365.454 30.6842 365.857 30.9817 366.13 31.3923C366.403 31.8029 366.529 32.3003 366.486 32.7976C366.498 33.1416 366.438 33.4842 366.308 33.8009C366.178 34.1176 365.982 34.4004 365.735 34.6289C365.223 35.0934 364.561 35.3401 363.882 35.32" fill="#7F594C"/>
<path d="M388.901 8.93545C388.91 9.23274 388.844 9.52723 388.709 9.78927C388.573 10.0513 388.374 10.2716 388.131 10.4281C387.6 10.7813 386.981 10.9639 386.351 10.9533C385.235 10.9533 384.484 10.6354 384.106 9.99966C383.781 9.22851 383.644 8.38583 383.707 7.54641C383.088 6.80342 382.326 6.20459 381.47 5.78899C380.614 5.3734 379.683 5.15041 378.738 5.13463C377.47 5.11433 376.221 5.46127 375.131 6.13667C374.584 6.42825 374.126 6.87202 373.807 7.41861C373.488 7.9652 373.321 8.59316 373.325 9.2326C373.325 9.85775 373.473 10.4732 373.757 11.0241C374.041 11.5751 374.452 12.0446 374.952 12.3907C375.943 13.1396 377.118 13.5806 378.34 13.6623C381.337 13.8348 384.224 14.8998 386.656 16.7306C387.873 17.6402 388.858 18.8454 389.525 20.2413C390.192 21.6372 390.52 23.1816 390.482 24.7399C390.482 27.9648 389.154 30.6669 386.497 32.846C384.183 34.7069 381.364 35.7614 378.441 35.8594C375.518 35.9574 372.64 35.094 370.216 33.392C369.744 33.605 369.235 33.7132 368.721 33.7098C367.158 33.7098 366.366 32.9335 366.343 31.381L366.297 26.2533C366.297 25.0325 367.163 24.422 368.894 24.422C370.099 24.422 370.863 24.7261 371.186 25.3342C371.45 26.176 371.554 27.0633 371.491 27.9464C372.307 28.863 373.292 29.5986 374.388 30.1093C375.484 30.6199 376.668 30.895 377.868 30.918C379.629 30.908 381.336 30.2798 382.711 29.135C384.351 27.822 385.175 26.3155 385.175 24.6017C385.182 23.7185 384.962 22.8494 384.536 22.0849C384.111 21.3205 383.497 20.6885 382.757 20.255C381.301 19.3454 379.656 18.8122 377.961 18.7001C375.434 18.4984 373.031 17.4759 371.093 15.7769C370.128 14.9525 369.354 13.9124 368.828 12.734C368.303 11.5555 368.039 10.269 368.057 8.96999C368.054 7.6562 368.367 6.36247 368.966 5.20629C369.566 4.05012 370.434 3.06815 371.491 2.34965C373.569 0.769058 376.085 -0.063162 378.659 -0.0206666C381.109 -0.0258413 383.503 0.740227 385.527 2.17689H386.311C386.987 2.16313 387.645 2.40916 388.158 2.86795C388.405 3.09005 388.602 3.36775 388.732 3.68014C388.862 3.99253 388.922 4.33153 388.908 4.67164L388.901 8.93545Z" fill="#7F594C"/>
<path d="M412.356 35.3338H406.332C405.652 35.354 404.991 35.1073 404.478 34.6428C404.232 34.4139 404.037 34.1308 403.908 33.8141C403.78 33.4974 403.72 33.155 403.734 32.8114C403.734 31.1345 404.731 30.296 406.723 30.296V20.6212C406.696 20.1386 406.575 19.6669 406.367 19.2345C406.159 18.8022 405.869 18.4182 405.515 18.1058C405.213 17.7455 404.846 17.4507 404.434 17.2384C404.023 17.0261 403.575 16.9005 403.117 16.8688C400.274 16.8688 398.85 18.6701 398.845 22.2728V30.2822C400.869 30.2822 401.883 31.1207 401.888 32.7977C401.901 33.1416 401.84 33.4843 401.71 33.8009C401.58 34.1176 401.385 34.4004 401.137 34.6289C400.627 35.0924 399.968 35.3391 399.29 35.32H393.259C392.582 35.3391 391.923 35.0924 391.412 34.6289C391.165 34.4004 390.969 34.1176 390.84 33.8009C390.71 33.4843 390.649 33.1416 390.662 32.7977C390.662 31.1184 391.665 30.2822 393.658 30.2822V5.72201C391.665 5.72201 390.662 4.87894 390.662 3.19967C390.65 2.85575 390.71 2.51325 390.84 2.19666C390.97 1.88008 391.165 1.59722 391.412 1.36836C391.923 0.904914 392.582 0.658214 393.259 0.6773H396.275C398.002 0.6773 398.865 1.51579 398.865 3.19276V13.3098C400.152 12.3476 401.685 11.8063 403.269 11.755C405.382 11.755 407.355 12.6764 409.188 14.5192C411.021 16.362 411.938 18.3914 411.938 20.6074V30.2822C413.966 30.2822 414.978 31.1207 414.974 32.7977C414.986 33.1416 414.926 33.4843 414.796 33.8009C414.666 34.1176 414.47 34.4004 414.223 34.6289C413.713 35.0924 413.053 35.3391 412.376 35.32" fill="#7F594C"/>
<path d="M424.679 35.7969C423.238 35.8428 421.804 35.5568 420.482 34.9595C419.159 34.3622 417.979 33.4683 417.027 32.3416C415.113 30.0476 414.107 27.0843 414.21 24.0489C414.112 20.9737 415.132 17.973 417.067 15.6457C418.018 14.5348 419.194 13.6569 420.51 13.075C421.826 12.4931 423.25 12.2217 424.679 12.2803C426.129 12.2305 427.571 12.5144 428.903 13.1117C430.235 13.709 431.424 14.605 432.384 15.7355C434.199 18.0872 435.188 21.0126 435.188 24.0282C435.188 27.0438 434.199 29.9692 432.384 32.3209C431.424 33.4515 430.235 34.3474 428.903 34.9447C427.571 35.542 426.129 35.8259 424.679 35.7762V35.7969ZM424.679 30.8282C425.482 30.8554 426.279 30.6775 427 30.31C427.722 29.9426 428.346 29.3968 428.817 28.7205C429.706 27.3314 430.179 25.7001 430.179 24.0316C430.179 22.3632 429.706 20.732 428.817 19.3428C428.332 18.6875 427.709 18.1569 426.995 17.7917C426.282 17.4266 425.497 17.2367 424.702 17.2367C423.907 17.2367 423.123 17.4266 422.409 17.7917C421.696 18.1569 421.072 18.6875 420.587 19.3428C419.699 20.732 419.225 22.3632 419.225 24.0316C419.225 25.7001 419.699 27.3314 420.587 28.7205C421.052 29.3921 421.669 29.9353 422.382 30.3027C423.095 30.67 423.884 30.8504 424.679 30.8282" fill="#7F594C"/>
<path d="M448.046 36.3426C446.248 36.3554 444.482 35.8482 442.945 34.8776V39.867C445.115 39.867 446.2 40.7055 446.2 42.3825C446.213 42.7266 446.153 43.0695 446.023 43.3864C445.894 43.7032 445.697 43.9858 445.449 44.2138C444.939 44.6825 444.276 44.9299 443.596 44.9048H437.545C436.863 44.9267 436.199 44.6799 435.685 44.2138C435.436 43.9858 435.24 43.7032 435.11 43.3864C434.981 43.0695 434.92 42.7266 434.934 42.3825C434.934 40.7032 435.877 39.867 437.75 39.867V17.85C435.758 17.85 434.761 17.0184 434.761 15.3552C434.749 15.0109 434.809 14.668 434.938 14.3505C435.066 14.033 435.26 13.7485 435.505 13.517C436.015 13.0483 436.679 12.801 437.359 12.826H440.348C441.464 12.826 442.194 13.1162 442.546 13.6967C444.093 12.7069 445.879 12.1985 447.694 12.2317C449.139 12.1988 450.576 12.4694 451.918 13.0275C453.261 13.5856 454.481 14.4196 455.506 15.4796C456.544 16.5202 457.364 17.7737 457.912 19.1606C458.461 20.5475 458.728 22.0379 458.694 23.5374C458.762 26.7183 457.766 29.8249 455.878 32.3276C454.973 33.5971 453.791 34.6245 452.429 35.3251C451.068 36.0256 449.565 36.3791 448.046 36.3565V36.3426ZM453.327 24.3666C453.365 22.6629 452.871 20.9924 451.919 19.6052C451.475 18.9014 450.867 18.3261 450.152 17.9333C449.436 17.5405 448.636 17.343 447.827 17.3593C447.087 17.3381 446.355 17.5222 445.706 17.8926C445.057 18.263 444.514 18.8064 444.134 19.467C443.292 20.8961 442.878 22.5537 442.945 24.2284C442.856 26.1053 443.357 27.9611 444.373 29.515C444.829 30.1621 445.431 30.6822 446.126 31.0294C446.821 31.3765 447.588 31.54 448.359 31.5052C449.853 31.5052 451.082 30.6622 452.052 28.9898C452.888 27.6048 453.33 26.002 453.327 24.3666" fill="#7F594C"/>
<path d="M233.667 17.0345H233.534C232.908 17.0345 232.309 16.776 231.866 16.316C231.424 15.8559 231.176 15.2319 231.176 14.5812V8.24426C231.176 7.59362 231.424 6.96961 231.866 6.50953C232.309 6.04946 232.908 5.79102 233.534 5.79102H233.653C234.279 5.79102 234.879 6.04946 235.321 6.50953C235.763 6.96961 236.012 7.59362 236.012 8.24426V14.5605C236.012 15.2112 235.763 15.8351 235.321 16.2952C234.879 16.7553 234.279 17.0138 233.653 17.0138" fill="#7F594C"/>
</g>
<defs>
<clipPath id="clip0_83_9048">
<rect width="459" height="170" fill="white"/>
</clipPath>
</defs>
</svg>
