<svg width="130" height="48" viewBox="0 0 130 48" fill="none" xmlns="http://www.w3.org/2000/svg">
<g clip-path="url(#clip0_113_10191)">
<path d="M105.909 13.1123H71.9433C71.8426 12.9187 71.6932 12.757 71.511 12.6442C71.3289 12.5315 71.1207 12.472 70.9086 12.472C70.6965 12.472 70.4883 12.5315 70.3062 12.6442C70.124 12.757 69.9746 12.9187 69.8739 13.1123H66.5966C66.4801 12.7569 66.2593 12.4482 65.965 12.2297C65.6708 12.0111 65.318 11.8936 64.9561 11.8936C64.5942 11.8936 64.2413 12.0111 63.9471 12.2297C63.6529 12.4482 63.432 12.7569 63.3155 13.1123H60.1718C60.0711 12.9187 59.9217 12.757 59.7396 12.6442C59.5574 12.5315 59.3492 12.472 59.1371 12.472C58.925 12.472 58.7168 12.5315 58.5347 12.6442C58.3525 12.757 58.2031 12.9187 58.1024 13.1123H23.9995C23.9194 13.1005 23.8379 13.1066 23.7603 13.1303C23.6828 13.154 23.6111 13.1947 23.55 13.2496C23.4889 13.3046 23.44 13.3725 23.4064 13.4488C23.3728 13.5251 23.3555 13.6079 23.3555 13.6918C23.3555 13.7756 23.3728 13.8585 23.4064 13.9348C23.44 14.0111 23.4889 14.079 23.55 14.1339C23.6111 14.1889 23.6828 14.2296 23.7603 14.2533C23.8379 14.277 23.9194 14.2831 23.9995 14.2713H58.1024C58.2031 14.4649 58.3525 14.6266 58.5347 14.7393C58.7168 14.8521 58.925 14.9116 59.1371 14.9116C59.3492 14.9116 59.5574 14.8521 59.7396 14.7393C59.9217 14.6266 60.0711 14.4649 60.1718 14.2713H63.3193C63.4358 14.6267 63.6566 14.9353 63.9509 15.1539C64.2451 15.3725 64.5979 15.49 64.9598 15.49C65.3217 15.49 65.6746 15.3725 65.9688 15.1539C66.263 14.9353 66.4839 14.6267 66.6004 14.2713H69.8776C69.9784 14.4649 70.1278 14.6266 70.3099 14.7393C70.4921 14.8521 70.7002 14.9116 70.9124 14.9116C71.1245 14.9116 71.3326 14.8521 71.5148 14.7393C71.697 14.6266 71.8463 14.4649 71.9471 14.2713H105.909C106.043 14.2514 106.167 14.1819 106.256 14.0754C106.345 13.9689 106.394 13.8327 106.394 13.6918C106.394 13.5508 106.345 13.4146 106.256 13.3082C106.167 13.2017 106.043 13.1322 105.909 13.1123Z" fill="#7F594C"/>
<path d="M78.845 29.8517C78.7077 30.119 78.6569 30.3415 78.5233 30.4371C78.2999 30.6005 78.052 30.7245 77.7896 30.8039C77.3098 30.962 76.8094 31.0556 76.3353 31.2234C76.0644 31.321 75.8631 31.2722 75.722 31.0517C75.5639 30.8 75.6975 30.5912 75.8969 30.4234C75.9241 30.3931 75.9567 30.3685 75.9929 30.3512C76.7586 30.1112 77.5224 29.8576 78.2956 29.6488C78.4311 29.6117 78.6136 29.7561 78.845 29.8439" fill="#7F594C"/>
<path d="M77.788 28.6537C77.721 28.7634 77.64 28.8632 77.5472 28.9503C76.836 29.4284 75.9819 29.3406 75.203 29.5532C75.1485 29.5669 74.9302 29.2644 74.9528 29.1396C74.9774 29.0457 75.0212 28.9584 75.0813 28.8836C75.1413 28.8089 75.2162 28.7484 75.3008 28.7064C75.8005 28.4964 76.3167 28.3313 76.8435 28.2127C77.0768 28.164 77.3553 28.2947 77.5961 28.3806C77.6751 28.4098 77.7184 28.5562 77.7842 28.6537" fill="#7F594C"/>
<path d="M52.1308 29.6449C52.238 29.6858 52.5296 29.7893 52.8193 29.9005C53.2131 30.0721 53.615 30.2232 54.0234 30.3532C54.2924 30.4234 54.4561 30.5054 54.4391 30.8136C54.4184 31.1785 54.1758 31.2878 53.8747 31.3151C53.7575 31.3196 53.6406 31.3004 53.5305 31.2585C52.9397 31.0517 52.349 30.8371 51.7582 30.6224C51.6491 30.5815 51.5024 30.5639 51.4459 30.4819C51.3387 30.3258 51.1957 30.1054 51.2352 29.961C51.2747 29.8166 51.5193 29.7385 51.6849 29.6507C51.747 29.6176 51.8391 29.6507 52.1251 29.6507" fill="#7F594C"/>
<path d="M52.729 28.1504C53.5022 28.3572 54.1419 28.5055 54.7665 28.7104C54.9114 28.7592 55.1202 29.0694 55.0844 29.1358C54.9866 29.3192 54.759 29.5748 54.6085 29.5572C53.9575 29.4792 53.316 29.3172 52.6726 29.1787C52.4092 29.1221 52.2116 28.9406 52.3151 28.6694C52.4225 28.4724 52.5626 28.2967 52.729 28.1504Z" fill="#7F594C"/>
<path d="M87.5308 36.1365C87.4537 36.0155 86.7482 35.0516 86.656 34.9384C86.2757 34.4224 85.8574 33.9377 85.4049 33.4887C84.4831 32.6594 83.5236 31.8809 82.5528 31.1043C81.3394 30.1287 80.0187 29.2584 79.1552 27.9121C78.5306 26.9365 77.7046 26.1872 76.9239 25.3755C76.6191 25.0614 76.1582 24.8701 75.9381 24.5111C75.5317 23.8555 74.9033 23.6623 74.2806 23.4536C73.4533 23.2016 72.6537 22.8602 71.8951 22.435C70.8453 21.8165 69.7541 21.2409 68.7758 20.474C68.2968 20.1201 67.747 19.8827 67.1673 19.7794C66.332 19.6292 65.8842 20.0174 65.6284 20.8857C65.429 21.5667 65.2352 22.2516 64.9906 23.0965C64.8589 22.3979 64.8025 21.834 64.6444 21.3013C64.2174 19.8731 63.6812 19.5453 62.3868 19.8613C62.0849 19.9582 61.7997 20.1045 61.5421 20.2945C61.0417 20.6184 60.5695 20.9911 60.0653 21.3072C58.7879 22.1072 57.4879 22.8545 56.0298 23.2877C54.9744 23.6018 54.2821 24.5072 53.5352 25.2604C52.3255 26.4799 51.0895 27.6818 49.94 28.956C49.6562 29.2369 49.3545 29.4976 49.0369 29.7365C47.1424 31.3248 44.9921 32.6145 43.4926 34.6711C42.3638 36.2126 41.0375 37.6155 40.7271 39.6643C40.5013 41.1609 40.9698 42.9248 42.5727 43.196C42.9734 43.2623 45.088 43.4282 45.2931 43.4165C47.0766 43.313 48.7434 42.7472 50.3727 42.0311C51.334 41.6057 52.3462 41.237 53.1947 40.636C54.2651 39.8848 55.3902 39.2292 55.7702 37.6487C56.1923 36.0251 57.0487 34.5585 58.2404 33.4184C58.5151 33.1453 58.7634 32.9736 59.1811 33.1628C59.8433 33.4653 60.498 33.2994 61.1094 32.9677C61.7999 32.5775 62.479 32.1735 63.1601 31.7696C63.5042 31.5704 63.7983 31.29 64.0186 30.951C64.2389 30.612 64.3792 30.224 64.4281 29.8184C64.5222 29.2194 64.5993 28.6184 64.7103 28.0233C64.7442 27.8282 64.8589 27.6643 65.047 27.2428C65.2088 28.1209 65.3782 28.7453 65.4327 29.3892C65.5343 30.5833 66.0536 31.4574 67.0864 32.0077C67.4736 32.2046 67.8504 32.4228 68.2152 32.6614C69.0806 33.2467 70.0175 33.4965 71.0128 33.2018C71.1204 33.1625 71.2369 33.1573 71.3475 33.1868C71.458 33.2164 71.5576 33.2793 71.6336 33.3677C72.0418 33.8009 72.4821 34.2418 72.7492 34.7687C73.2948 35.8379 73.9081 36.8779 74.2543 38.0584C74.3952 38.5517 74.6324 39.0095 74.9512 39.4036C75.27 39.7977 75.6635 40.1196 76.1074 40.3492C77.3942 41.0399 78.6735 41.7852 80.0281 42.3004C81.5557 42.8857 83.1135 43.4711 84.7954 43.4477C84.9196 43.4477 86.5036 43.4477 86.7031 43.4223C88.2081 43.2389 89.1168 42.154 89.2297 40.5872C89.3557 38.7999 88.4038 37.5043 87.5365 36.154L87.5308 36.1365ZM43.6826 35.9804C43.6175 35.9804 43.5539 35.9603 43.4997 35.9228C43.4456 35.8853 43.4034 35.832 43.3785 35.7696C43.3536 35.7072 43.347 35.6385 43.3597 35.5723C43.3724 35.5061 43.4038 35.4452 43.4498 35.3975C43.4959 35.3497 43.5545 35.3172 43.6184 35.304C43.6823 35.2908 43.7485 35.2976 43.8086 35.3234C43.8688 35.3493 43.9202 35.3931 43.9564 35.4492C43.9926 35.5054 44.0119 35.5714 44.0119 35.6389C44.0114 35.7293 43.9765 35.8159 43.9149 35.8798C43.8533 35.9437 43.7698 35.9799 43.6826 35.9804ZM44.7418 37.0028C44.6766 37.0032 44.6128 36.9835 44.5584 36.9462C44.504 36.9089 44.4615 36.8557 44.4363 36.7934C44.4111 36.731 44.4043 36.6623 44.4168 36.5959C44.4293 36.5296 44.4605 36.4685 44.5065 36.4206C44.5525 36.3726 44.6111 36.3399 44.675 36.3266C44.7389 36.3133 44.8052 36.3199 44.8655 36.3457C44.9258 36.3715 44.9773 36.4152 45.0136 36.4714C45.0498 36.5276 45.0692 36.5937 45.0692 36.6614C45.0692 36.7516 45.0348 36.8381 44.9734 36.9021C44.9121 36.9661 44.8288 37.0023 44.7418 37.0028ZM45.8481 36.3199C45.8481 36.2524 45.8674 36.1863 45.9035 36.1302C45.9397 36.074 45.9911 36.0303 46.0513 36.0044C46.1115 35.9786 46.1777 35.9718 46.2415 35.985C46.3054 35.9982 46.3641 36.0307 46.4101 36.0784C46.4561 36.1262 46.4875 36.187 46.5002 36.2533C46.5129 36.3195 46.5064 36.3882 46.4815 36.4506C46.4565 36.513 46.4143 36.5663 46.3602 36.6038C46.3061 36.6413 46.2424 36.6614 46.1773 36.6614C46.134 36.6616 46.0911 36.653 46.051 36.6359C46.011 36.6188 45.9746 36.5937 45.9439 36.5619C45.9133 36.5302 45.8891 36.4924 45.8726 36.4509C45.8562 36.4093 45.8478 36.3648 45.8481 36.3199ZM46.6853 37.914C46.6201 37.914 46.5565 37.894 46.5023 37.8565C46.4482 37.819 46.406 37.7656 46.3811 37.7032C46.3562 37.6408 46.3496 37.5722 46.3624 37.506C46.3751 37.4397 46.4064 37.3789 46.4525 37.3311C46.4985 37.2834 46.5572 37.2508 46.621 37.2377C46.6849 37.2245 46.7511 37.2312 46.8112 37.2571C46.8714 37.2829 46.9228 37.3267 46.959 37.3829C46.9952 37.439 47.0145 37.505 47.0145 37.5726C47.014 37.663 46.9791 37.7495 46.9175 37.8135C46.8559 37.8774 46.7724 37.9135 46.6853 37.914ZM47.7727 38.8896C47.7075 38.89 47.6436 38.8703 47.5892 38.8331C47.5349 38.7958 47.4924 38.7426 47.4672 38.6802C47.4419 38.6178 47.4352 38.5491 47.4476 38.4828C47.4601 38.4164 47.4913 38.3554 47.5373 38.3074C47.5833 38.2595 47.6419 38.2268 47.7059 38.2134C47.7698 38.2001 47.8361 38.2067 47.8963 38.2325C47.9566 38.2583 48.0081 38.3021 48.0444 38.3583C48.0807 38.4145 48.1 38.4806 48.1 38.5482C48.1 38.6384 48.0656 38.725 48.0043 38.7889C47.9429 38.8529 47.8597 38.8891 47.7727 38.8896ZM49.5449 39.0087C49.4798 39.0087 49.4161 38.9886 49.362 38.9511C49.3078 38.9136 49.2656 38.8603 49.2407 38.7979C49.2158 38.7355 49.2093 38.6668 49.222 38.6006C49.2347 38.5344 49.266 38.4735 49.3121 38.4258C49.3581 38.378 49.4168 38.3455 49.4806 38.3323C49.5445 38.3191 49.6107 38.3259 49.6709 38.3517C49.731 38.3776 49.7824 38.4213 49.8186 38.4775C49.8548 38.5337 49.8741 38.5997 49.8741 38.6672C49.8741 38.7578 49.8394 38.8446 49.7777 38.9087C49.7159 38.9727 49.6322 39.0087 49.5449 39.0087ZM51.2381 38.5482C51.1729 38.5482 51.1091 38.5281 51.055 38.4905C51.0008 38.4529 50.9586 38.3994 50.9337 38.3369C50.9089 38.2744 50.9025 38.2057 50.9153 38.1394C50.9282 38.0731 50.9597 38.0123 51.0059 37.9646C51.0522 37.9169 51.111 37.8845 51.175 37.8716C51.239 37.8586 51.3053 37.8657 51.3654 37.8918C51.4255 37.918 51.4768 37.962 51.5127 38.0184C51.5487 38.0748 51.5677 38.1411 51.5673 38.2087C51.5673 38.2534 51.5588 38.2977 51.5422 38.339C51.5256 38.3804 51.5014 38.4179 51.4708 38.4494C51.4402 38.481 51.4039 38.506 51.3639 38.5229C51.324 38.5398 51.2812 38.5484 51.2381 38.5482ZM52.8654 37.8672C52.8003 37.8672 52.7367 37.8472 52.6825 37.8097C52.6284 37.7721 52.5862 37.7188 52.5613 37.6564C52.5363 37.594 52.5298 37.5254 52.5425 37.4591C52.5552 37.3929 52.5866 37.3321 52.6326 37.2843C52.6787 37.2365 52.7373 37.204 52.8012 37.1908C52.8651 37.1777 52.9313 37.1844 52.9914 37.2103C53.0516 37.2361 53.103 37.2799 53.1392 37.336C53.1754 37.3922 53.1947 37.4582 53.1947 37.5257C53.1949 37.5707 53.1866 37.6152 53.1701 37.6567C53.1537 37.6983 53.1294 37.736 53.0988 37.7678C53.0682 37.7995 53.0318 37.8247 52.9917 37.8417C52.9517 37.8588 52.9087 37.8675 52.8654 37.8672ZM54.2143 37.0009C54.1492 37.0009 54.0856 36.9808 54.0314 36.9433C53.9773 36.9058 53.9351 36.8525 53.9102 36.7901C53.8853 36.7277 53.8787 36.659 53.8914 36.5928C53.9041 36.5265 53.9355 36.4657 53.9815 36.418C54.0276 36.3702 54.0863 36.3377 54.1501 36.3245C54.214 36.3113 54.2802 36.3181 54.3403 36.3439C54.4005 36.3698 54.4519 36.4135 54.4881 36.4697C54.5243 36.5258 54.5436 36.5919 54.5436 36.6594C54.5436 36.75 54.5089 36.8368 54.4472 36.9009C54.3854 36.9649 54.3017 37.0009 54.2143 37.0009ZM63.9728 26.6965C63.9182 27.4535 63.6737 28.1989 63.4799 28.9384C63.4066 29.129 63.2826 29.2941 63.1224 29.4145C62.5449 29.9062 61.9222 30.3433 61.3728 30.8662C60.641 31.5628 59.6796 31.7365 58.8104 32.037C57.8785 32.3722 57.0904 33.0376 56.5848 33.916C56.1013 34.6867 55.5576 35.2818 54.6471 35.5745C53.7365 35.8672 52.9256 36.3745 52.1035 36.8526C51.1628 37.4028 50.13 37.6428 49.0821 37.8145C48.8715 37.8553 48.655 37.8492 48.4468 37.7969C48.2386 37.7445 48.0435 37.647 47.8742 37.5108C47.705 37.3746 47.5656 37.2027 47.465 37.0065C47.3645 36.8103 47.3052 36.5943 47.291 36.3726C47.1782 35.2135 47.0578 35.1394 45.9854 35.5004C45.618 35.6327 45.2404 35.7319 44.8566 35.797C44.7877 35.809 44.7169 35.801 44.6521 35.7736C44.5874 35.7463 44.5313 35.7008 44.49 35.6423C44.4488 35.5837 44.4242 35.5144 44.4188 35.4422C44.4134 35.3699 44.4276 35.2975 44.4596 35.2331C44.6136 34.9014 44.8181 34.5976 45.0654 34.3336C45.6919 33.7131 46.2996 33.0399 47.0201 32.5579C49.0595 31.1921 50.7169 29.3696 52.5607 27.7716C52.713 27.6389 52.8598 27.5023 53.0028 27.3599C53.458 26.9072 53.9434 26.8155 54.489 27.1979C55.0243 27.5591 55.6579 27.7309 56.2951 27.6877C56.5378 27.6877 56.7861 27.6623 56.8426 27.3482C56.9046 26.9931 56.6845 26.7979 56.408 26.716C55.9978 26.595 55.5708 26.5404 55.1531 26.4448C55.0003 26.4105 54.8524 26.3561 54.7129 26.2828C54.3912 26.1092 54.3479 25.8418 54.632 25.6057C55.6517 24.7667 56.7316 24.1931 58.1143 24.6048C59.0641 24.8881 60.0499 25.0197 61.0379 24.995C61.3532 24.9974 61.6639 24.917 61.9411 24.7615C62.2184 24.6059 62.4533 24.3802 62.6239 24.1053C62.9588 23.5999 63.2824 23.0867 63.7301 22.396C63.8637 22.8194 63.986 23.034 63.9897 23.2506C64.0104 24.3979 64.0612 25.5511 63.9785 26.6926L63.9728 26.6965ZM75.7838 37.4243C75.7185 37.4247 75.6546 37.4049 75.6002 37.3675C75.5458 37.3302 75.5033 37.2769 75.4781 37.2144C75.453 37.1519 75.4463 37.0831 75.4589 37.0167C75.4716 36.9503 75.503 36.8892 75.5491 36.8414C75.5953 36.7935 75.6541 36.7609 75.7182 36.7478C75.7822 36.7347 75.8486 36.7416 75.9088 36.7677C75.969 36.7938 76.0204 36.8379 76.0565 36.8943C76.0925 36.9508 76.1115 37.0171 76.1112 37.0848C76.1112 37.1748 76.0767 37.2612 76.0153 37.3248C75.9539 37.3885 75.8706 37.4243 75.7838 37.4243ZM77.1308 38.2906C77.0657 38.2906 77.0021 38.2706 76.9479 38.2331C76.8938 38.1956 76.8516 38.1422 76.8267 38.0798C76.8018 38.0174 76.7952 37.9488 76.8079 37.8825C76.8206 37.8163 76.852 37.7555 76.898 37.7077C76.9441 37.66 77.0028 37.6274 77.0666 37.6143C77.1305 37.6011 77.1967 37.6078 77.2568 37.6337C77.317 37.6595 77.3684 37.7033 77.4046 37.7595C77.4408 37.8156 77.4601 37.8816 77.4601 37.9492C77.4601 38.0397 77.4254 38.1266 77.3637 38.1906C77.3019 38.2546 77.2182 38.2906 77.1308 38.2906ZM78.7601 38.9735C78.695 38.9735 78.6313 38.9535 78.5772 38.916C78.523 38.8785 78.4808 38.8251 78.4559 38.7628C78.431 38.7004 78.4245 38.6317 78.4372 38.5655C78.4499 38.4992 78.4812 38.4384 78.5273 38.3906C78.5733 38.3429 78.632 38.3104 78.6958 38.2972C78.7597 38.284 78.8259 38.2908 78.8861 38.3166C78.9462 38.3425 78.9977 38.3862 79.0338 38.4424C79.07 38.4985 79.0893 38.5645 79.0893 38.6321C79.0893 38.7226 79.0546 38.8095 78.9929 38.8735C78.9311 38.9376 78.8474 38.9735 78.7601 38.9735ZM80.4533 39.4321C80.3881 39.4321 80.3244 39.412 80.2702 39.3744C80.216 39.3368 80.1738 39.2833 80.1489 39.2208C80.1241 39.1583 80.1176 39.0896 80.1305 39.0233C80.1434 38.957 80.1749 38.8962 80.2211 38.8485C80.2674 38.8008 80.3262 38.7684 80.3902 38.7555C80.4542 38.7425 80.5204 38.7496 80.5806 38.7757C80.6407 38.8019 80.692 38.8459 80.7279 38.9023C80.7639 38.9587 80.7829 39.025 80.7825 39.0926C80.7825 39.1373 80.774 39.1816 80.7574 39.2229C80.7408 39.2643 80.7166 39.3018 80.686 39.3333C80.6554 39.3649 80.6191 39.3899 80.5791 39.4068C80.5392 39.4238 80.4964 39.4323 80.4533 39.4321ZM82.2255 39.315C82.1604 39.315 82.0967 39.295 82.0426 39.2575C81.9884 39.2199 81.9462 39.1666 81.9213 39.1042C81.8964 39.0418 81.8899 38.9732 81.9026 38.9069C81.9153 38.8407 81.9466 38.7799 81.9927 38.7321C82.0387 38.6843 82.0974 38.6518 82.1613 38.6386C82.2251 38.6255 82.2913 38.6322 82.3515 38.6581C82.4116 38.6839 82.4631 38.7277 82.4992 38.7838C82.5354 38.84 82.5547 38.906 82.5547 38.9735C82.5542 39.0639 82.5194 39.1505 82.4577 39.2144C82.3961 39.2784 82.3127 39.3145 82.2255 39.315ZM83.3129 38.3394C83.2477 38.3398 83.1839 38.3201 83.1295 38.2828C83.0751 38.2455 83.0326 38.1923 83.0074 38.13C82.9822 38.0676 82.9754 37.9989 82.9879 37.9325C83.0004 37.8662 83.0316 37.8051 83.0776 37.7572C83.1235 37.7092 83.1822 37.6765 83.2461 37.6632C83.31 37.6499 83.3763 37.6565 83.4366 37.6823C83.4968 37.7081 83.5484 37.7518 83.5846 37.808C83.6209 37.8642 83.6403 37.9303 83.6403 37.9979C83.6403 38.0882 83.6058 38.1747 83.5445 38.2387C83.4832 38.3027 83.3999 38.3389 83.3129 38.3394ZM83.8209 37.0887C83.7557 37.0887 83.6921 37.0686 83.6379 37.0311C83.5838 36.9936 83.5416 36.9403 83.5167 36.8779C83.4918 36.8155 83.4852 36.7468 83.4979 36.6806C83.5107 36.6144 83.542 36.5535 83.5881 36.5057C83.6341 36.458 83.6928 36.4255 83.7566 36.4123C83.8205 36.3991 83.8867 36.4059 83.9469 36.4317C84.007 36.4576 84.0584 36.5013 84.0946 36.5575C84.1308 36.6136 84.1501 36.6797 84.1501 36.7472C84.1501 36.8378 84.1154 36.9246 84.0537 36.9887C83.9919 37.0527 83.9082 37.0887 83.8209 37.0887ZM84.7747 35.8009C84.3984 35.6935 84.0466 35.4965 83.6741 35.3755C82.9216 35.1296 82.6563 35.3189 82.5924 36.1228C82.5924 36.2048 82.5924 36.2867 82.5924 36.3687C82.4926 37.5218 81.7702 38.1092 80.6583 37.8672C79.9649 37.727 79.2868 37.5152 78.634 37.235C77.2324 36.6067 75.9193 35.7813 74.465 35.2643C74.1941 35.1667 73.9664 34.874 73.7745 34.6243C73.4811 34.2438 73.2647 33.797 72.9637 33.4243C72.1829 32.4487 71.5696 32.0779 70.2527 31.6272C69.1239 31.237 68.1832 30.4916 67.2031 29.8223C66.9064 29.6121 66.6602 29.3341 66.4834 29.0097C66.3066 28.6853 66.204 28.3231 66.1834 27.9511C66.1363 26.6731 65.555 25.4145 66.0611 24.0955C66.2229 23.674 66.0874 23.1296 66.0874 22.4272C66.3847 22.7023 66.5653 22.8174 66.6725 22.9813C66.8494 23.2487 66.951 23.5667 67.1297 23.836C67.6226 24.5716 68.2114 25.0926 69.1841 25.0184C70.1567 24.9443 71.0654 24.9755 71.9929 24.6692C72.9731 24.3433 74.6738 24.8136 75.3925 25.5277C75.7499 25.8828 75.7311 26.1501 75.3172 26.394C74.8093 26.6965 74.2957 26.9794 73.7444 27.2994C74.1207 27.8009 74.4725 27.7345 74.8206 27.6253C75.1197 27.5296 75.4057 27.3853 75.7067 27.2877C76.3426 27.0809 76.9935 26.8467 77.3999 27.6779C78.7733 28.714 79.6575 30.2887 81.1381 31.2272C81.8259 31.6854 82.4822 32.1926 83.1022 32.7453C83.7964 33.3443 84.4511 33.9921 85.1152 34.6282C85.2427 34.726 85.338 34.8623 85.388 35.0184C85.4312 35.2486 85.4028 35.487 85.3071 35.6994C85.2413 35.8087 84.9308 35.8418 84.7709 35.795L84.7747 35.8009ZM85.2526 37.4223C85.1874 37.4223 85.1236 37.4023 85.0695 37.3646C85.0153 37.327 84.9731 37.2736 84.9482 37.2111C84.9233 37.1486 84.9169 37.0798 84.9298 37.0135C84.9426 36.9472 84.9742 36.8864 85.0204 36.8387C85.0667 36.791 85.1255 36.7587 85.1895 36.7457C85.2535 36.7328 85.3197 36.7398 85.3799 36.766C85.44 36.7921 85.4913 36.8362 85.5272 36.8926C85.5632 36.949 85.5822 37.0152 85.5818 37.0828C85.5813 37.173 85.5464 37.2594 85.4847 37.323C85.423 37.3866 85.3395 37.4223 85.2526 37.4223ZM86.3099 36.3999C86.2447 36.3999 86.1811 36.3799 86.1269 36.3423C86.0728 36.3048 86.0306 36.2515 86.0057 36.1891C85.9808 36.1267 85.9743 36.058 85.987 35.9918C85.9997 35.9256 86.031 35.8647 86.0771 35.817C86.1231 35.7692 86.1818 35.7367 86.2456 35.7235C86.3095 35.7103 86.3757 35.7171 86.4359 35.743C86.496 35.7688 86.5474 35.8126 86.5836 35.8687C86.6198 35.9249 86.6391 35.9909 86.6391 36.0584C86.6393 36.1033 86.631 36.1479 86.6145 36.1894C86.5981 36.2309 86.5738 36.2687 86.5432 36.3005C86.5126 36.3322 86.4762 36.3574 86.4361 36.3744C86.3961 36.3915 86.3532 36.4001 86.3099 36.3999Z" fill="#7F594C"/>
<path d="M7.12604 1.54731L4.84586 5.64487V8.5717C5.09976 8.55858 5.354 8.58891 5.5984 8.66146C5.71514 8.71055 5.81342 8.79753 5.87854 8.90938C5.94365 9.02123 5.97209 9.15194 5.95961 9.28195C5.96359 9.37894 5.94675 9.47564 5.91031 9.56506C5.87388 9.65448 5.81874 9.73438 5.7489 9.79901C5.60438 9.92987 5.41767 9.99953 5.22589 9.99414H2.98899C2.79721 9.99953 2.61051 9.92987 2.46598 9.79901C2.39614 9.73438 2.34101 9.65448 2.30457 9.56506C2.26813 9.47564 2.25129 9.37894 2.25527 9.28195C2.24354 9.15001 2.27404 9.01775 2.34205 8.90559C2.41006 8.79343 2.5118 8.70764 2.63154 8.66146C2.87578 8.58813 3.13015 8.55778 3.38407 8.5717V5.69951L1.07003 1.54731C0.825032 1.56179 0.579658 1.52666 0.3476 1.44389C0.233806 1.39582 0.138247 1.31056 0.0754308 1.20104C0.0126143 1.09151 -0.0140289 0.963718 -0.000447151 0.837064C-0.0044277 0.740073 0.012409 0.643377 0.0488482 0.553956C0.0852874 0.464536 0.140419 0.384629 0.210261 0.319998C0.353724 0.188589 0.54008 0.118815 0.731394 0.124876H2.45657C2.64789 0.118815 2.83424 0.188589 2.9777 0.319998C3.04755 0.384629 3.10268 0.464536 3.13912 0.553956C3.17556 0.643377 3.19239 0.740073 3.18841 0.837064C3.19234 0.933686 3.17585 1.03003 3.1401 1.11935C3.10436 1.20867 3.05021 1.28881 2.98146 1.35414C2.83944 1.48416 2.65536 1.55383 2.46598 1.54926H2.75382L4.10086 3.97658L5.44224 1.54731H5.7188C5.52942 1.55188 5.34534 1.4822 5.20332 1.35219C5.13457 1.28685 5.08042 1.20672 5.04468 1.1174C5.00893 1.02808 4.99244 0.931733 4.99637 0.835111C4.99239 0.73812 5.00922 0.641424 5.04566 0.552003C5.0821 0.462582 5.13723 0.382676 5.20708 0.318045C5.35054 0.186636 5.5369 0.116861 5.72821 0.122923H7.45339C7.6447 0.116861 7.83106 0.186636 7.97452 0.318045C8.0446 0.382579 8.10001 0.462427 8.13677 0.551836C8.17353 0.641245 8.19073 0.737985 8.18711 0.835111C8.19944 0.960111 8.17355 1.08597 8.11311 1.19487C8.05268 1.30377 7.96076 1.39021 7.85035 1.44195C7.61767 1.52482 7.37166 1.55994 7.12604 1.54536" fill="#7F594C"/>
<path d="M12.5798 9.99024H11.7314C11.4153 9.99024 11.2046 9.88682 11.0955 9.67999C10.631 9.97493 10.0954 10.1272 9.55091 10.119C8.95508 10.1351 8.36736 9.97319 7.85771 9.65267C7.60225 9.49957 7.39115 9.27807 7.24652 9.01135C7.10188 8.74464 7.02902 8.44251 7.03556 8.13658C7.03796 7.71404 7.15535 7.30078 7.3742 6.94438C7.5844 6.58071 7.88793 6.28483 8.2509 6.08975C8.93822 5.72683 9.8538 5.56747 10.9977 5.6117C10.9977 5.01463 10.5838 4.71609 9.75597 4.71609C9.60796 4.71807 9.46274 4.75815 9.33336 4.83274C9.20398 4.90732 9.09449 5.01408 9.01473 5.1434C8.81342 5.42828 8.6046 5.57072 8.38636 5.57072C8.20528 5.57434 8.02831 5.51453 7.88404 5.40097C7.81447 5.34771 7.75866 5.27745 7.72157 5.19644C7.68448 5.11542 7.66726 5.02616 7.67145 4.93658C7.67496 4.84285 7.69605 4.75072 7.73354 4.66535C8.05713 3.81983 8.72563 3.39771 9.73904 3.39901C10.2701 3.39514 10.7949 3.51869 11.2723 3.76C12.07 4.16585 12.4688 4.9756 12.4688 6.18926V8.60682C13.0332 8.60682 13.3154 8.8234 13.3154 9.25267C13.3187 9.35158 13.3016 9.45008 13.2652 9.54159C13.2289 9.63311 13.1742 9.71555 13.1047 9.78341C12.9637 9.92151 12.7756 9.9959 12.5817 9.99024H12.5798ZM10.9977 7.03023C10.8566 7.01253 10.7146 7.00406 10.5725 7.00486C9.19282 7.00486 8.503 7.3795 8.503 8.12877C8.503 8.51901 8.87927 8.71413 9.65062 8.71413C9.95745 8.7235 10.2616 8.65236 10.5348 8.50731C10.6734 8.44222 10.7908 8.33675 10.8727 8.20371C10.9545 8.07068 10.9973 7.91584 10.9958 7.75804V7.40097C10.9881 7.27622 10.9881 7.15109 10.9958 7.02634" fill="#7F594C"/>
<path d="M19.5959 9.99016H17.8877C17.6962 9.99405 17.51 9.92458 17.3647 9.79504C17.2945 9.73193 17.2391 9.65313 17.2026 9.56457C17.1661 9.47602 17.1495 9.38002 17.154 9.28382C17.154 8.81943 17.4406 8.58724 18.0137 8.58724V6.07406C18.0107 5.77486 17.9015 5.4873 17.7071 5.26626C17.6042 5.13205 17.469 5.02833 17.3152 4.96556C17.1613 4.90278 16.9943 4.88317 16.8308 4.90869C16.6673 4.93421 16.5132 5.00397 16.384 5.11094C16.2548 5.2179 16.155 5.35828 16.0948 5.51796C15.9322 5.8845 15.8549 6.2855 15.869 6.68869V8.60284C16.4848 8.60284 16.7921 8.83503 16.7909 9.29942C16.7956 9.39583 16.7788 9.49207 16.742 9.58071C16.7051 9.66935 16.6491 9.74801 16.5783 9.81064C16.4324 9.94047 16.2456 10.0099 16.0534 10.0058H14.3395C14.1473 10.0099 13.9605 9.94047 13.8146 9.81064C13.7438 9.74801 13.6878 9.66935 13.6509 9.58071C13.6141 9.49207 13.5973 9.39583 13.602 9.29942C13.602 8.83503 13.8679 8.60284 14.3997 8.60284V5.01455C13.8328 5.01455 13.55 4.7817 13.5512 4.31601C13.5472 4.2197 13.5643 4.12369 13.6011 4.03517C13.6379 3.94665 13.6935 3.8679 13.7638 3.80479C13.9091 3.67526 14.0953 3.60579 14.2868 3.60967H15.1334C15.2486 3.59947 15.3646 3.61627 15.4727 3.65882C15.5808 3.70138 15.6783 3.76861 15.758 3.85553C16.1081 3.62471 16.5134 3.4997 16.9282 3.49455H16.979C17.3187 3.48659 17.6563 3.55186 17.9704 3.6862C18.2845 3.82055 18.5684 4.02105 18.8039 4.27503C19.2723 4.81718 19.5168 5.52832 19.4849 6.25553V8.59699C20.0506 8.59699 20.3334 8.82919 20.3334 9.29358C20.3377 9.38993 20.3207 9.48602 20.2839 9.57459C20.2471 9.66316 20.1913 9.74188 20.1208 9.80479C19.9756 9.93433 19.7894 10.0038 19.5978 9.99992" fill="#7F594C"/>
<path d="M26.0019 9.99024H25.1534C24.8374 9.99024 24.6266 9.88682 24.5175 9.67999C24.0531 9.97493 23.5175 10.1272 22.973 10.119C22.3771 10.1351 21.7894 9.97319 21.2798 9.65267C21.0243 9.49957 20.8132 9.27807 20.6686 9.01135C20.5239 8.74464 20.4511 8.44251 20.4576 8.13658C20.46 7.71404 20.5774 7.30078 20.7963 6.94438C21.0064 6.58071 21.31 6.28483 21.673 6.08975C22.359 5.72683 23.2746 5.56747 24.4197 5.6117C24.4197 5.01463 24.0058 4.71609 23.178 4.71609C23.03 4.7179 22.8847 4.75791 22.7553 4.83251C22.6259 4.90711 22.5164 5.01396 22.4368 5.1434C22.2355 5.42828 22.0266 5.57072 21.8084 5.57072C21.6273 5.57434 21.4504 5.51453 21.3061 5.40097C21.2365 5.34771 21.1807 5.27745 21.1436 5.19644C21.1065 5.11542 21.0893 5.02616 21.0935 4.93658C21.097 4.84285 21.1181 4.75072 21.1556 4.66535C21.4792 3.81983 22.1477 3.39771 23.1611 3.39901C23.6922 3.39514 24.2169 3.51869 24.6944 3.76C25.4921 4.16585 25.8909 4.9756 25.8909 6.18926V8.60682C26.4553 8.60682 26.7375 8.8234 26.7375 9.25267C26.7407 9.35158 26.7236 9.45008 26.6873 9.54159C26.651 9.63311 26.5962 9.71555 26.5268 9.78341C26.3858 9.92151 26.1977 9.9959 26.0038 9.99024H26.0019ZM24.4197 7.03023C24.2804 7.01473 24.1403 7.00822 24.0002 7.01072C22.6205 7.01072 21.9307 7.38536 21.9307 8.13463C21.9307 8.52487 22.307 8.71999 23.0783 8.71999C23.3851 8.72936 23.6893 8.65822 23.9625 8.51316C24.1011 8.44808 24.2185 8.34261 24.3004 8.20957C24.3822 8.07654 24.425 7.92169 24.4235 7.76389V7.40097C24.4158 7.27622 24.4158 7.15109 24.4235 7.02634" fill="#7F594C"/>
<path d="M37.6994 1.7718C37.6637 0.75131 37.5471 0.620579 36.6647 0.601067C35.6563 0.585457 34.6498 0.601067 33.6414 0.601067C32.633 0.601067 31.6246 0.583506 30.6162 0.601067C29.9935 0.614725 29.8637 0.759112 29.8374 1.42643C29.811 2.09375 29.8185 2.75716 29.8374 3.42252C29.8505 3.8635 30.0989 4.23619 30.4883 4.23228C30.8495 4.23228 31.0715 4.01179 31.1148 3.49862C31.1261 3.35618 31.1374 3.17472 31.1468 3.03423C31.2145 2.15228 31.7337 2.03716 32.1363 2.04691C32.8005 2.06252 33.0563 2.40399 33.0676 3.21765V8.68106C32.8135 8.66443 32.5586 8.69551 32.3151 8.77277C32.1936 8.81632 32.0901 8.90154 32.0217 9.01437C31.9533 9.12719 31.924 9.26086 31.9388 9.39326C31.9356 9.48792 31.9518 9.5822 31.9861 9.66996C32.0205 9.75772 32.0723 9.83697 32.1382 9.90253C32.2063 9.96885 32.2864 10.0203 32.374 10.0538C32.4616 10.0873 32.5548 10.1022 32.6481 10.0976H34.9301C35.0234 10.1022 35.1166 10.0873 35.2042 10.0538C35.2917 10.0203 35.3719 9.96885 35.44 9.90253C35.5059 9.83697 35.5577 9.75772 35.5921 9.66996C35.6264 9.5822 35.6426 9.48792 35.6394 9.39326C35.6551 9.26279 35.628 9.13062 35.5625 9.01806C35.497 8.90549 35.3968 8.81909 35.2782 8.77277C35.0344 8.69693 34.7797 8.66589 34.5256 8.68106V3.19423C34.5218 3.09197 34.5256 2.98955 34.5369 2.88789C34.6235 2.3396 34.9264 2.03716 35.4061 2.04496C35.8858 2.05277 36.1774 2.32204 36.264 2.88204C36.3005 3.19606 36.3551 3.50751 36.4277 3.81472C36.4748 3.96624 36.5695 4.09701 36.6967 4.18613C36.8239 4.27526 36.9763 4.31761 37.1294 4.30643C37.2901 4.29055 37.4386 4.21077 37.5438 4.08382C37.6491 3.95687 37.7028 3.79261 37.6938 3.62546C37.7051 3.00692 37.7164 2.38838 37.6938 1.7718" fill="#7F594C"/>
<path d="M40.9139 9.97667H39.0702C38.8784 9.98206 38.6917 9.9124 38.5471 9.78155C38.4771 9.71701 38.4217 9.63716 38.3849 9.54776C38.3481 9.45835 38.3309 9.3616 38.3346 9.26447C38.3346 8.79032 38.6431 8.55422 39.2564 8.55422V4.88398C38.6092 4.88398 38.2856 4.64724 38.2856 4.17374C38.282 4.07593 38.299 3.97847 38.3353 3.88816C38.3717 3.79784 38.4267 3.71685 38.4963 3.65082C38.6408 3.51847 38.8286 3.44863 39.0212 3.4557H39.992C40.4824 3.4557 40.7276 3.69309 40.7276 4.16788V8.56203C41.3422 8.56203 41.6495 8.79879 41.6495 9.27228C41.6534 9.36927 41.6366 9.46597 41.6002 9.55539C41.5637 9.64481 41.5086 9.72472 41.4388 9.78935C41.2935 9.92016 41.1062 9.98978 40.9139 9.98447V9.97667ZM40.7257 1.61569C40.7257 1.46132 40.6816 1.31043 40.5989 1.18208C40.5162 1.05373 40.3987 0.953686 40.2612 0.894613C40.1237 0.83554 39.9724 0.820088 39.8264 0.850203C39.6804 0.880319 39.5463 0.954644 39.4411 1.0638C39.3358 1.17295 39.2642 1.31203 39.2351 1.46343C39.2061 1.61483 39.221 1.77176 39.2779 1.91437C39.3349 2.05699 39.4314 2.17889 39.5551 2.26465C39.6789 2.35041 39.8244 2.39617 39.9732 2.39617C40.1728 2.39617 40.3642 2.31394 40.5053 2.16757C40.6465 2.0212 40.7257 1.82268 40.7257 1.61569Z" fill="#7F594C"/>
<path d="M44.3486 10.041C44.0693 10.0534 43.7914 9.99251 43.5408 9.86392C43.2902 9.73534 43.075 9.54323 42.915 9.3054C42.5945 8.81929 42.4329 8.23928 42.4541 7.65077V4.93662C41.7555 4.93662 41.4068 4.69987 41.4081 4.22637C41.4081 3.74247 41.7561 3.50248 42.4541 3.50248V2.35125C42.4505 2.25413 42.4677 2.15738 42.5044 2.06797C42.5412 1.97856 42.5966 1.89871 42.6667 1.83417C42.8144 1.7093 42.9991 1.64111 43.1897 1.64111C43.3803 1.64111 43.565 1.7093 43.7127 1.83417C43.7828 1.89871 43.8382 1.97856 43.875 2.06797C43.9117 2.15738 43.9289 2.25413 43.9253 2.35125V3.49857C44.2497 3.49001 44.5744 3.49848 44.898 3.52394C45.0581 3.54544 45.2042 3.6299 45.3061 3.75988C45.408 3.88987 45.4578 4.05546 45.4454 4.22248C45.4562 4.38766 45.4054 4.55081 45.3035 4.67826C45.2016 4.80571 45.0565 4.88772 44.898 4.90735C44.5744 4.9328 44.2497 4.94127 43.9253 4.93271V7.64687C43.9253 8.29272 44.0965 8.59516 44.437 8.62248C45.0014 8.6576 44.9074 8.18345 44.9544 7.91223C44.9654 7.83589 44.9909 7.76257 45.0293 7.69648C45.0678 7.63039 45.1184 7.57284 45.1784 7.52714C45.2384 7.48144 45.3065 7.44849 45.3788 7.43019C45.4511 7.41189 45.5262 7.4086 45.5997 7.42052C46.4632 7.45954 46.1058 9.02247 46.0249 9.20394C45.7427 9.84198 45.1388 10.043 44.3486 10.043" fill="#7F594C"/>
<path d="M49.3398 10.1074C48.9312 10.1205 48.525 10.0398 48.15 9.87115C47.775 9.70249 47.4406 9.45001 47.1706 9.13175C46.6286 8.48403 46.3436 7.64733 46.3729 6.79028C46.3458 5.92175 46.6353 5.07453 47.1838 4.4176C47.453 4.10373 47.7861 3.85569 48.1589 3.69138C48.5317 3.52706 48.935 3.45056 49.3398 3.46736C49.7501 3.45334 50.1583 3.53351 50.5352 3.70217C50.9122 3.87082 51.2485 4.12379 51.5202 4.44297C52.0341 5.10698 52.3142 5.93297 52.3142 6.78443C52.3142 7.6359 52.0341 8.46189 51.5202 9.1259C51.2485 9.44508 50.9122 9.69804 50.5352 9.86669C50.1583 10.0353 49.7501 10.1155 49.3398 10.1015V10.1074ZM49.3398 8.70443C49.5669 8.71195 49.7923 8.66164 49.9963 8.5579C50.2003 8.45415 50.3766 8.30012 50.5099 8.10931C50.7627 7.71755 50.8977 7.25678 50.8977 6.7854C50.8977 6.31402 50.7627 5.85326 50.5099 5.4615C50.3727 5.2765 50.1963 5.12667 49.9944 5.02356C49.7925 4.92046 49.5705 4.86684 49.3454 4.86684C49.1203 4.86684 48.8983 4.92046 48.6964 5.02356C48.4945 5.12667 48.3181 5.2765 48.1809 5.4615C47.9281 5.85326 47.7932 6.31402 47.7932 6.7854C47.7932 7.25678 47.9281 7.71755 48.1809 8.10931C48.3123 8.29932 48.4867 8.45296 48.6888 8.55673C48.8908 8.66049 49.1144 8.71121 49.3398 8.70443Z" fill="#7F594C"/>
<path d="M58.1608 5.0264L56.3415 9.54737C56.2887 9.68765 56.1933 9.80632 56.0698 9.88551C55.9463 9.96469 55.8013 10.0001 55.6567 9.98639C55.5124 9.99789 55.3684 9.96157 55.2453 9.88266C55.1222 9.80376 55.0265 9.68635 54.9719 9.54737L53.1602 5.0264C52.5331 5.0264 52.2195 4.7942 52.2195 4.32981C52.2148 4.2334 52.2316 4.13717 52.2684 4.04854C52.3053 3.9599 52.3613 3.88123 52.4321 3.81859C52.578 3.68876 52.7648 3.61929 52.957 3.62347H54.6652C54.8574 3.61929 55.0443 3.68876 55.1901 3.81859C55.2575 3.88394 55.3112 3.96294 55.348 4.05072C55.3847 4.13849 55.4037 4.23315 55.4037 4.32883C55.4037 4.42452 55.3847 4.51918 55.348 4.60695C55.3112 4.69472 55.2575 4.77373 55.1901 4.83908C55.0413 4.9688 54.8521 5.03812 54.6577 5.0342H54.7292L55.6605 7.5142L56.6011 5.04006H56.6726C56.4782 5.04398 56.2891 4.97466 56.1402 4.84493C56.0728 4.77959 56.0191 4.70057 55.9824 4.6128C55.9456 4.52503 55.9267 4.43036 55.9267 4.33468C55.9267 4.239 55.9456 4.14435 55.9824 4.05657C56.0191 3.9688 56.0728 3.88979 56.1402 3.82444C56.2861 3.69461 56.4729 3.62513 56.6651 3.62932H58.379C58.5717 3.62538 58.7591 3.6948 58.9058 3.82444C58.9763 3.88736 59.032 3.96608 59.0689 4.05465C59.1057 4.14321 59.1226 4.23931 59.1184 4.33566C59.1184 4.80005 58.8048 5.03224 58.1777 5.03224" fill="#7F594C"/>
<path d="M64.5799 9.99024H63.7314C63.4153 9.99024 63.2046 9.88682 63.0955 9.67999C62.6312 9.97523 62.0955 10.1275 61.5509 10.119C60.9551 10.1351 60.3674 9.97319 59.8577 9.65267C59.6022 9.49957 59.3912 9.27807 59.2465 9.01135C59.1019 8.74464 59.029 8.44251 59.0356 8.13658C59.038 7.71404 59.1554 7.30078 59.3742 6.94438C59.5851 6.58058 59.8892 6.28471 60.2528 6.08975C60.9376 5.72683 61.8525 5.56747 62.9976 5.6117C62.9976 5.01463 62.5838 4.71609 61.756 4.71609C61.608 4.71807 61.4627 4.75815 61.3334 4.83274C61.204 4.90732 61.0945 5.01408 61.0147 5.1434C60.8134 5.42828 60.6046 5.57072 60.3864 5.57072C60.2053 5.57434 60.0283 5.51453 59.884 5.40097C59.8148 5.34736 59.7593 5.27703 59.7222 5.1961C59.6852 5.11517 59.6678 5.02608 59.6715 4.93658C59.675 4.84285 59.6961 4.75072 59.7335 4.66535C60.0571 3.81983 60.7256 3.39771 61.739 3.39901C62.2701 3.39514 62.7949 3.51869 63.2723 3.76C64.07 4.16585 64.4688 4.9756 64.4688 6.18926V8.60682C65.0332 8.60682 65.3173 8.8234 65.3173 9.25267C65.3202 9.35171 65.3027 9.45027 65.2661 9.54177C65.2294 9.63328 65.1744 9.71565 65.1047 9.78341C64.9637 9.92151 64.7756 9.9959 64.5817 9.99024H64.5799ZM62.9976 7.03023C62.8546 7.01424 62.7107 7.00773 62.5668 7.01072C61.1872 7.01072 60.4974 7.38536 60.4974 8.13463C60.4974 8.52487 60.8793 8.71999 61.6431 8.71999C61.9499 8.72961 62.2541 8.65846 62.5273 8.51316C62.6659 8.44808 62.7833 8.34261 62.8651 8.20957C62.947 8.07654 62.9897 7.92169 62.9882 7.76389V7.40097C62.9806 7.27622 62.9806 7.15109 62.9882 7.02634" fill="#7F594C"/>
<path d="M70.524 10.08C69.9544 10.0806 69.3892 9.97555 68.8553 9.76972C68.7779 9.84816 68.686 9.90939 68.5851 9.94965C68.4841 9.98991 68.3763 10.0084 68.2683 10.0039C67.8042 10.0039 67.5716 9.77493 67.5703 9.31704V8.02533C67.5703 7.66371 67.8074 7.48289 68.2814 7.48289C68.5881 7.48289 68.7951 7.55118 68.8985 7.68972C69.0161 7.89086 69.062 8.12834 69.0283 8.36094C69.4921 8.64375 70.024 8.78321 70.5616 8.76289C71.3254 8.76289 71.7092 8.52875 71.7092 8.06436C71.7092 7.67412 71.1605 7.39379 70.0631 7.22338C69.5389 7.14667 69.0369 6.95294 68.5919 6.65557C68.0689 6.28484 67.8074 5.84516 67.8074 5.33655C67.8074 4.80451 68.0651 4.35248 68.5806 3.98045C69.0118 3.6443 69.5368 3.46282 70.0762 3.46338C70.5636 3.46449 71.0446 3.57918 71.4835 3.79898C71.6279 3.72971 71.7853 3.69441 71.9444 3.69558C72.4009 3.69558 72.6298 3.91541 72.6311 4.35509V5.52582C72.6327 5.60704 72.6117 5.68701 72.5707 5.75621C72.5296 5.8254 72.4703 5.88089 72.3997 5.91606C72.2452 6.00366 72.0716 6.04867 71.8955 6.04679C71.7872 6.06006 71.6775 6.04841 71.5741 6.01266C71.4707 5.97691 71.3762 5.91794 71.2972 5.83996C71.1869 5.65442 71.1386 5.43634 71.1599 5.21948C70.8393 4.95502 70.4407 4.81309 70.0311 4.81753C69.8722 4.81303 69.7156 4.85787 69.5815 4.9463C69.5116 4.99083 69.4542 5.0535 69.415 5.12811C69.3757 5.20272 69.3559 5.28668 69.3576 5.37167C69.3576 5.5785 69.6661 5.72874 70.2794 5.82435C70.9343 5.91387 71.5634 6.14665 72.125 6.50728C72.8061 6.94695 73.1466 7.47573 73.1466 8.09362C73.1466 8.74403 72.8518 9.2507 72.2624 9.61363C71.7326 9.93193 71.1285 10.0926 70.5165 10.078" fill="#7F594C"/>
<path d="M86.7638 1.54745L84.8581 9.44599C84.7734 9.7894 84.5345 9.96307 84.1432 9.96307C83.7518 9.96307 83.5392 9.80892 83.4395 9.50063L81.7125 3.20404L79.9817 9.49672C79.8826 9.80631 79.6505 9.96176 79.2856 9.96307C78.8961 9.96307 78.6591 9.7894 78.5763 9.44599L76.678 1.56307C76.0635 1.56307 75.7556 1.32632 75.7543 0.852821C75.751 0.754588 75.7683 0.656775 75.805 0.566152C75.8417 0.47553 75.8969 0.394259 75.9669 0.327943C76.1108 0.196064 76.2979 0.126258 76.4899 0.132821H78.2358C78.4299 0.123286 78.6198 0.193381 78.7644 0.327943C78.8326 0.394908 78.8861 0.476213 78.9215 0.566402C78.9569 0.656592 78.9732 0.753581 78.9695 0.850868C78.9695 1.32501 78.708 1.56307 78.1812 1.56307L79.3928 6.5777L81.0258 0.591352C81.1249 0.280458 81.3575 0.12566 81.7238 0.126961C82.1 0.126961 82.322 0.283062 82.4217 0.593306L84.0735 6.60697L85.2776 1.56111C84.7458 1.56111 84.4793 1.32436 84.478 0.850868C84.4748 0.752925 84.4921 0.655419 84.5288 0.565116C84.5655 0.474813 84.6207 0.393879 84.6906 0.327943C84.8346 0.196064 85.0217 0.126258 85.2136 0.132821H86.9576C87.1522 0.124231 87.3423 0.19417 87.4882 0.327943C87.5563 0.3937 87.6099 0.47396 87.6453 0.563211C87.6806 0.652461 87.697 0.748595 87.6932 0.84502C87.6932 1.31461 87.3859 1.54941 86.7714 1.54941" fill="#7F594C"/>
<path d="M89.7677 10.1074C89.3592 10.1205 88.9529 10.0398 88.578 9.87115C88.203 9.70249 87.8685 9.45001 87.5986 9.13175C87.0574 8.48354 86.7725 7.64718 86.8009 6.79028C86.7737 5.92175 87.0633 5.07453 87.6117 4.4176C87.881 4.10373 88.214 3.85569 88.5869 3.69138C88.9597 3.52706 89.363 3.45056 89.7677 3.46736C90.178 3.45334 90.5863 3.53351 90.9632 3.70217C91.3401 3.87082 91.6765 4.12379 91.9482 4.44297C92.4621 5.10698 92.7422 5.93297 92.7422 6.78443C92.7422 7.6359 92.4621 8.46189 91.9482 9.1259C91.6765 9.44508 91.3401 9.69804 90.9632 9.86669C90.5863 10.0353 90.178 10.1155 89.7677 10.1015V10.1074ZM89.7677 8.70443C89.9951 8.71176 90.2207 8.66138 90.425 8.55766C90.6292 8.45394 90.806 8.30003 90.9398 8.10931C91.1914 7.71708 91.3256 7.25649 91.3256 6.7854C91.3256 6.31431 91.1914 5.85373 90.9398 5.4615C90.806 5.27078 90.6292 5.11687 90.425 5.01315C90.2207 4.90943 89.9951 4.85905 89.7677 4.86638C89.5424 4.85977 89.3189 4.91057 89.1169 5.01432C88.9148 5.11807 88.7404 5.27161 88.6088 5.4615C88.3573 5.85373 88.223 6.31431 88.223 6.7854C88.223 7.25649 88.3573 7.71708 88.6088 8.10931C88.7404 8.2992 88.9148 8.45274 89.1169 8.55649C89.3189 8.66024 89.5424 8.71104 89.7677 8.70443Z" fill="#7F594C"/>
<path d="M97.2087 4.21855C97.2087 4.8605 96.5145 4.93659 96.2248 4.93659C96.082 4.9323 95.9403 4.96333 95.8114 5.02712C95.6825 5.09091 95.5701 5.18563 95.4836 5.30343C95.2985 5.54205 95.1993 5.84012 95.2032 6.14635V8.59513C95.4472 8.5811 95.6918 8.61148 95.9257 8.68489C96.0419 8.73065 96.1403 8.81493 96.2057 8.92466C96.271 9.03439 96.2995 9.16343 96.2869 9.29172C96.2911 9.38807 96.2742 9.48416 96.2374 9.57273C96.2005 9.6613 96.1448 9.74002 96.0743 9.80294C95.929 9.93248 95.7428 10.0019 95.5513 9.99806H93.6568C93.4652 10.0019 93.279 9.93248 93.1338 9.80294C93.0633 9.74002 93.0075 9.6613 92.9707 9.57273C92.9339 9.48416 92.9169 9.38807 92.9212 9.29172C92.9212 8.82733 93.1915 8.59513 93.732 8.59513V5.01465C93.1676 5.01465 92.8854 4.7818 92.8854 4.31611C92.8811 4.21993 92.8978 4.12398 92.9343 4.03544C92.9708 3.94691 93.0261 3.86809 93.0961 3.80489C93.2414 3.67535 93.4276 3.60588 93.6192 3.60977H94.4676C94.5839 3.59837 94.701 3.61598 94.8094 3.66112C94.9177 3.70627 95.014 3.77765 95.0904 3.86928C95.4294 3.6338 95.828 3.50752 96.2361 3.50635C96.6933 3.50635 97.2087 3.70148 97.2087 4.21075" fill="#7F594C"/>
<path d="M103.081 9.97671H101.367C101.174 9.98428 100.985 9.91441 100.84 9.78159C100.771 9.71518 100.716 9.63383 100.679 9.5432C100.643 9.45257 100.626 9.35481 100.63 9.25671C100.622 9.12498 100.659 8.99459 100.734 8.88783C100.808 8.78107 100.917 8.70456 101.04 8.67135L100.156 7.11037L99.403 7.92403C99.4114 8.03208 99.4077 8.1408 99.3917 8.24794C99.3917 8.41964 99.3785 8.5289 99.3785 8.57183C99.9693 8.57183 100.263 8.80793 100.263 9.28208C100.267 9.37907 100.25 9.47577 100.213 9.56519C100.177 9.65461 100.122 9.73451 100.052 9.79914C99.9075 9.93 99.7208 9.99966 99.529 9.99427H97.8358C97.6439 10.0008 97.4568 9.93102 97.3128 9.79914C97.2423 9.73496 97.1866 9.65518 97.1498 9.56569C97.113 9.47619 97.0961 9.37928 97.1002 9.28208C97.1002 8.80858 97.3868 8.57183 97.96 8.57183V1.61573C97.3868 1.61573 97.1002 1.37834 97.1002 0.903542C97.0963 0.806381 97.1134 0.70954 97.1502 0.620089C97.187 0.530637 97.2425 0.450823 97.3128 0.386464C97.4568 0.254586 97.6439 0.184779 97.8358 0.191342H98.69C99.1791 0.191342 99.4255 0.427442 99.4255 0.901589V5.95525L100.534 4.71427C100.44 4.6494 100.361 4.56275 100.305 4.46116C100.249 4.35957 100.217 4.24581 100.21 4.1289C100.21 3.67232 100.468 3.44402 100.985 3.44402H102.678C102.867 3.43661 103.051 3.50673 103.19 3.63914C103.256 3.70317 103.309 3.78128 103.344 3.86814C103.378 3.955 103.395 4.04859 103.391 4.14256C103.405 4.27805 103.376 4.41451 103.308 4.53111C103.24 4.64772 103.137 4.73808 103.015 4.78841C102.764 4.86349 102.503 4.89385 102.242 4.87818L101.059 6.10744L102.564 8.55037C102.836 8.53634 103.109 8.56196 103.374 8.62647C103.506 8.66388 103.62 8.7479 103.697 8.86382C103.775 8.97975 103.81 9.12021 103.798 9.26062C103.801 9.35774 103.784 9.45448 103.747 9.54389C103.711 9.6333 103.655 9.71315 103.585 9.77768C103.44 9.90883 103.253 9.9785 103.06 9.97281" fill="#7F594C"/>
<path d="M110.146 2.52287C110.149 2.60682 110.13 2.68997 110.092 2.76395C110.053 2.83794 109.997 2.90015 109.928 2.94433C109.778 3.04405 109.602 3.09563 109.424 3.09263C109.108 3.09263 108.895 3.00287 108.788 2.82336C108.696 2.60562 108.657 2.36769 108.675 2.13068C108.5 1.92089 108.284 1.75181 108.042 1.63446C107.799 1.51712 107.535 1.45416 107.268 1.4497C106.909 1.44397 106.555 1.54193 106.246 1.73263C106.091 1.81496 105.962 1.94026 105.871 2.09459C105.781 2.24892 105.734 2.42623 105.735 2.60678C105.735 2.78329 105.777 2.95705 105.857 3.11262C105.938 3.26819 106.054 3.40074 106.196 3.49848C106.476 3.70993 106.809 3.83443 107.155 3.85751C108.004 3.90621 108.822 4.20693 109.51 4.72386C109.855 4.98068 110.134 5.32097 110.323 5.71511C110.512 6.10926 110.605 6.54531 110.594 6.98531C110.594 7.89588 110.218 8.6588 109.465 9.27409C108.81 9.79952 108.012 10.0973 107.184 10.1249C106.356 10.1526 105.541 9.90882 104.854 9.42824C104.721 9.48839 104.576 9.51895 104.431 9.51799C103.988 9.51799 103.764 9.29881 103.757 8.86043L103.744 7.41263C103.744 7.06791 103.989 6.89555 104.48 6.89555C104.821 6.89555 105.037 6.98141 105.129 7.15311C105.204 7.3908 105.233 7.64133 105.215 7.89068C105.446 8.14948 105.725 8.35719 106.036 8.50137C106.346 8.64554 106.681 8.72321 107.021 8.7297C107.52 8.72689 108.003 8.54951 108.393 8.22628C108.858 7.85555 109.091 7.43019 109.091 6.94629C109.093 6.6969 109.03 6.45152 108.91 6.23567C108.79 6.01982 108.616 5.84139 108.406 5.71897C107.994 5.46216 107.528 5.31162 107.048 5.27995C106.332 5.22301 105.652 4.9343 105.102 4.45459C104.829 4.22181 104.61 3.92814 104.461 3.5954C104.312 3.26266 104.238 2.8994 104.243 2.53263C104.242 2.16168 104.33 1.79639 104.5 1.46994C104.67 1.14349 104.916 0.866226 105.215 0.663357C105.804 0.217071 106.516 -0.0179087 107.245 -0.00590995C107.939 -0.00737106 108.617 0.208931 109.191 0.614576H109.413C109.604 0.610692 109.79 0.68016 109.936 0.809698C110.006 0.872411 110.061 0.950819 110.098 1.03902C110.135 1.12723 110.152 1.22295 110.148 1.31898L110.146 2.52287Z" fill="#7F594C"/>
<path d="M116.789 9.97658H115.083C114.891 9.98227 114.703 9.91261 114.558 9.78146C114.488 9.71683 114.433 9.63691 114.397 9.54749C114.36 9.45807 114.343 9.36137 114.347 9.26438C114.347 8.79088 114.63 8.55413 115.194 8.55413V5.82243C115.186 5.68617 115.152 5.55298 115.093 5.4309C115.034 5.30881 114.952 5.20039 114.852 5.11219C114.766 5.01045 114.662 4.92723 114.546 4.86729C114.429 4.80735 114.302 4.77188 114.172 4.76292C113.367 4.76292 112.964 5.27153 112.963 6.28877V8.55024C113.536 8.55024 113.823 8.78699 113.824 9.26049C113.828 9.35761 113.811 9.45435 113.774 9.54376C113.737 9.63317 113.682 9.71302 113.612 9.77755C113.467 9.90841 113.281 9.97806 113.089 9.97267H111.38C111.189 9.97806 111.002 9.90841 110.857 9.77755C110.787 9.71302 110.732 9.63317 110.695 9.54376C110.658 9.45435 110.641 9.35761 110.645 9.26049C110.645 8.78634 110.929 8.55024 111.493 8.55024V1.6156C110.929 1.6156 110.645 1.37756 110.645 0.903409C110.641 0.8063 110.659 0.709594 110.695 0.620206C110.732 0.530817 110.787 0.450952 110.857 0.386331C111.002 0.255477 111.189 0.18582 111.38 0.191209H112.235C112.724 0.191209 112.968 0.42796 112.968 0.901456V3.75804C113.333 3.48636 113.767 3.33351 114.216 3.31902C114.814 3.31902 115.373 3.57918 115.892 4.09951C116.411 4.61983 116.671 5.19284 116.671 5.81853V8.55024C117.245 8.55024 117.532 8.78699 117.531 9.26049C117.534 9.35761 117.517 9.45435 117.48 9.54376C117.443 9.63317 117.388 9.71302 117.318 9.77755C117.173 9.90841 116.987 9.97806 116.795 9.97267" fill="#7F594C"/>
<path d="M120.28 10.1073C119.871 10.1202 119.465 10.0395 119.091 9.87084C118.716 9.70219 118.382 9.44979 118.112 9.13168C117.57 8.48396 117.285 7.64726 117.315 6.79021C117.287 5.92191 117.576 5.07466 118.124 4.41753C118.393 4.10387 118.726 3.85598 119.099 3.69169C119.472 3.52739 119.875 3.45076 120.28 3.46729C120.69 3.45325 121.099 3.53341 121.476 3.70206C121.853 3.87071 122.19 4.12368 122.462 4.4429C122.976 5.10691 123.256 5.9329 123.256 6.78436C123.256 7.63583 122.976 8.46182 122.462 9.12583C122.19 9.44505 121.853 9.69801 121.476 9.86666C121.099 10.0353 120.69 10.1155 120.28 10.1014V10.1073ZM120.28 8.70436C120.507 8.71203 120.733 8.6618 120.937 8.55805C121.141 8.4543 121.318 8.30021 121.452 8.10924C121.703 7.71701 121.837 7.25642 121.837 6.78533C121.837 6.31424 121.703 5.85366 121.452 5.46143C121.314 5.27641 121.138 5.12657 120.936 5.02347C120.734 4.92037 120.511 4.86675 120.286 4.86675C120.061 4.86675 119.839 4.92037 119.637 5.02347C119.435 5.12657 119.258 5.27641 119.121 5.46143C118.869 5.85366 118.735 6.31424 118.735 6.78533C118.735 7.25642 118.869 7.71701 119.121 8.10924C119.252 8.29888 119.427 8.45224 119.629 8.55597C119.831 8.65969 120.054 8.71063 120.28 8.70436Z" fill="#7F594C"/>
<path d="M126.898 10.2614C126.388 10.265 125.888 10.1218 125.453 9.84778V11.2566C126.067 11.2566 126.375 11.4933 126.375 11.9668C126.379 12.064 126.361 12.1608 126.325 12.2503C126.288 12.3397 126.232 12.4195 126.162 12.4839C126.018 12.6162 125.83 12.6861 125.637 12.679H123.923C123.73 12.6852 123.542 12.6155 123.397 12.4839C123.326 12.4195 123.271 12.3397 123.234 12.2503C123.197 12.1608 123.18 12.064 123.184 11.9668C123.184 11.4927 123.451 11.2566 123.982 11.2566V5.03998C123.417 5.03998 123.135 4.80517 123.135 4.33558C123.132 4.23837 123.149 4.14155 123.185 4.05189C123.221 3.96223 123.276 3.88192 123.346 3.81656C123.49 3.68421 123.678 3.61437 123.871 3.62144H124.717C125.033 3.62144 125.24 3.70339 125.34 3.8673C125.778 3.58782 126.284 3.44428 126.798 3.45364C127.207 3.44434 127.614 3.52077 127.994 3.67834C128.374 3.83592 128.72 4.07139 129.01 4.3707C129.304 4.66452 129.537 5.01843 129.692 5.41004C129.847 5.80165 129.923 6.22245 129.913 6.64583C129.933 7.54396 129.651 8.42115 129.116 9.12778C128.86 9.48623 128.525 9.77633 128.139 9.97412C127.753 10.1719 127.328 10.2717 126.898 10.2653V10.2614ZM128.393 6.87998C128.404 6.39892 128.264 5.92724 127.995 5.53559C127.869 5.33684 127.697 5.17442 127.494 5.06351C127.291 4.95261 127.065 4.89684 126.836 4.90144C126.626 4.89545 126.419 4.94742 126.235 5.05201C126.051 5.15659 125.897 5.31002 125.79 5.49656C125.551 5.90005 125.434 6.36808 125.453 6.84095C125.428 7.37088 125.57 7.8949 125.857 8.33364C125.986 8.51634 126.157 8.6632 126.354 8.76122C126.551 8.85924 126.768 8.90538 126.986 8.89558C127.409 8.89558 127.757 8.65754 128.032 8.18535C128.269 7.79429 128.394 7.34173 128.393 6.87998Z" fill="#7F594C"/>
<path d="M66.1801 4.80988H66.1425C65.9653 4.80988 65.7955 4.73691 65.6702 4.60701C65.545 4.4771 65.4746 4.30091 65.4746 4.1172V2.32793C65.4746 2.14422 65.545 1.96803 65.6702 1.83813C65.7955 1.70823 65.9653 1.63525 66.1425 1.63525H66.1763C66.3535 1.63525 66.5234 1.70823 66.6486 1.83813C66.7739 1.96803 66.8442 2.14422 66.8442 2.32793V4.11135C66.8442 4.29506 66.7739 4.47124 66.6486 4.60115C66.5234 4.73105 66.3535 4.80403 66.1763 4.80403" fill="#7F594C"/>
</g>
<defs>
<clipPath id="clip0_113_10191">
<rect width="130" height="48" fill="white"/>
</clipPath>
</defs>
</svg>
