<svg width="57" height="57" viewBox="0 0 57 57" fill="none" xmlns="http://www.w3.org/2000/svg">
<circle cx="28.181" cy="28.181" r="28.181" fill="#7F594C"/>
<path fill-rule="evenodd" clip-rule="evenodd" d="M35.7265 24.4547C35.7265 25.7083 35.2368 27.1325 34.3555 28.7222C33.7943 29.7345 33.0835 30.7945 32.2571 31.8823C31.5252 32.8458 30.7431 33.7789 29.961 34.6475C29.6871 34.9517 29.4325 35.2265 29.2034 35.4675C29.0645 35.6136 28.9639 35.7171 28.9079 35.7735C28.5071 36.1775 27.8539 36.1775 27.453 35.7735C27.3971 35.7171 27.2965 35.6136 27.1576 35.4675C26.9285 35.2265 26.6738 34.9517 26.4 34.6475C25.6179 33.7789 24.8358 32.8458 24.1038 31.8823C23.2775 30.7945 22.5667 29.7345 22.0055 28.7222C21.1242 27.1325 20.6345 25.7083 20.6345 24.4547C20.6345 20.0582 24.1285 16.9087 28.1805 16.9087C32.2324 16.9087 35.7265 20.0582 35.7265 24.4547ZM28.438 33.2761C29.1844 32.4471 29.9307 31.5568 30.6253 30.6424C31.3965 29.6272 32.0544 28.6461 32.5632 27.7284C33.2911 26.4154 33.6771 25.2926 33.6771 24.4546C33.6771 21.2402 31.1454 18.9581 28.1807 18.9581C25.2159 18.9581 22.6842 21.2402 22.6842 24.4546C22.6842 25.2926 23.0703 26.4154 23.7982 27.7284C24.307 28.6461 24.9649 29.6272 25.7361 30.6424C26.4307 31.5568 27.177 32.4471 27.9233 33.2761C28.0113 33.3739 28.0972 33.4684 28.1807 33.5595C28.2641 33.4684 28.35 33.3739 28.438 33.2761ZM25.2926 24.4548C25.2926 26.0498 26.5856 27.3428 28.1806 27.3428C29.7756 27.3428 31.0686 26.0498 31.0686 24.4548C31.0686 22.8598 29.7756 21.5668 28.1806 21.5668C26.5856 21.5668 25.2926 22.8598 25.2926 24.4548ZM28.1808 25.2932C28.6438 25.2932 29.0192 24.9178 29.0192 24.4547C29.0192 23.9917 28.6438 23.6163 28.1808 23.6163C27.7177 23.6163 27.3423 23.9917 27.3423 24.4547C27.3423 24.9178 27.7177 25.2932 28.1808 25.2932ZM32.7613 33.1116C32.6623 33.6688 33.0337 34.2008 33.5909 34.2999C34.9081 34.534 35.9836 34.8489 36.6981 35.2008C37.0892 35.3934 37.291 35.5504 37.3671 35.6096C37.3921 35.629 37.4035 35.6379 37.4035 35.6339C37.4035 36.2581 33.2019 37.404 28.1806 37.404C23.1594 37.404 18.9577 36.2581 18.9577 35.6339C18.9577 35.6379 18.9691 35.629 18.9942 35.6096C19.0702 35.5504 19.272 35.3934 19.6631 35.2008C20.3777 34.8489 21.4532 34.534 22.7703 34.2999C23.3276 34.2008 23.699 33.6688 23.5999 33.1116C23.5009 32.5544 22.9689 32.1829 22.4117 32.282C19.0246 32.884 16.9082 33.9261 16.9082 35.6339C16.9082 38.0969 21.8825 39.4535 28.1806 39.4535C34.4788 39.4535 39.453 38.0969 39.453 35.6339C39.453 33.9261 37.3366 32.884 33.9496 32.282C33.3924 32.1829 32.8603 32.5544 32.7613 33.1116Z" fill="white"/>
<mask id="mask0_83_9028" style="mask-type:alpha" maskUnits="userSpaceOnUse" x="16" y="16" width="24" height="24">
<path fill-rule="evenodd" clip-rule="evenodd" d="M35.7265 24.4547C35.7265 25.7083 35.2368 27.1325 34.3555 28.7222C33.7943 29.7345 33.0835 30.7945 32.2571 31.8823C31.5252 32.8458 30.7431 33.7789 29.961 34.6475C29.6871 34.9517 29.4325 35.2265 29.2034 35.4675C29.0645 35.6136 28.9639 35.7171 28.9079 35.7735C28.5071 36.1775 27.8539 36.1775 27.453 35.7735C27.3971 35.7171 27.2965 35.6136 27.1576 35.4675C26.9285 35.2265 26.6738 34.9517 26.4 34.6475C25.6179 33.7789 24.8358 32.8458 24.1038 31.8823C23.2775 30.7945 22.5667 29.7345 22.0055 28.7222C21.1242 27.1325 20.6345 25.7083 20.6345 24.4547C20.6345 20.0582 24.1285 16.9087 28.1805 16.9087C32.2324 16.9087 35.7265 20.0582 35.7265 24.4547ZM28.438 33.2761C29.1844 32.4471 29.9307 31.5568 30.6253 30.6424C31.3965 29.6272 32.0544 28.6461 32.5632 27.7284C33.2911 26.4154 33.6771 25.2926 33.6771 24.4546C33.6771 21.2402 31.1454 18.9581 28.1807 18.9581C25.2159 18.9581 22.6842 21.2402 22.6842 24.4546C22.6842 25.2926 23.0703 26.4154 23.7982 27.7284C24.307 28.6461 24.9649 29.6272 25.7361 30.6424C26.4307 31.5568 27.177 32.4471 27.9233 33.2761C28.0113 33.3739 28.0972 33.4684 28.1807 33.5595C28.2641 33.4684 28.35 33.3739 28.438 33.2761ZM25.2926 24.4548C25.2926 26.0498 26.5856 27.3428 28.1806 27.3428C29.7756 27.3428 31.0686 26.0498 31.0686 24.4548C31.0686 22.8598 29.7756 21.5668 28.1806 21.5668C26.5856 21.5668 25.2926 22.8598 25.2926 24.4548ZM28.1808 25.2932C28.6438 25.2932 29.0192 24.9178 29.0192 24.4547C29.0192 23.9917 28.6438 23.6163 28.1808 23.6163C27.7177 23.6163 27.3423 23.9917 27.3423 24.4547C27.3423 24.9178 27.7177 25.2932 28.1808 25.2932ZM32.7613 33.1116C32.6623 33.6688 33.0337 34.2008 33.5909 34.2999C34.9081 34.534 35.9836 34.8489 36.6981 35.2008C37.0892 35.3934 37.291 35.5504 37.3671 35.6096C37.3921 35.629 37.4035 35.6379 37.4035 35.6339C37.4035 36.2581 33.2019 37.404 28.1806 37.404C23.1594 37.404 18.9577 36.2581 18.9577 35.6339C18.9577 35.6379 18.9691 35.629 18.9942 35.6096C19.0702 35.5504 19.272 35.3934 19.6631 35.2008C20.3777 34.8489 21.4532 34.534 22.7703 34.2999C23.3276 34.2008 23.699 33.6688 23.5999 33.1116C23.5009 32.5544 22.9689 32.1829 22.4117 32.282C19.0246 32.884 16.9082 33.9261 16.9082 35.6339C16.9082 38.0969 21.8825 39.4535 28.1806 39.4535C34.4788 39.4535 39.453 38.0969 39.453 35.6339C39.453 33.9261 37.3366 32.884 33.9496 32.282C33.3924 32.1829 32.8603 32.5544 32.7613 33.1116Z" fill="white"/>
</mask>
<g mask="url(#mask0_83_9028)">
</g>
</svg>
