<svg width="180" height="180" viewBox="0 0 180 180" fill="none" xmlns="http://www.w3.org/2000/svg">
<g clip-path="url(#clip0)">
<path d="M0.303467 89.9137V139.89H21.0353C41.5547 139.89 44.2259 139.797 49.3254 138.776C65.9291 135.467 75.0353 124.798 77.8279 105.253C78.6475 99.5934 79.0117 92.9753 78.8296 86.852C78.2832 69.6883 74.8229 58.2767 67.9021 50.9164C62.924 45.6281 56.7622 42.5664 47.7773 40.8655C44.317 40.2161 43.2242 40.1851 22.2495 40.0924L0.303467 39.9687V89.9137ZM44.1652 61.6167C49.6593 63.8124 52.2394 67.9874 53.7874 77.1104C54.6981 82.4297 54.7891 97.0266 53.9089 102.315C52.5733 110.603 49.9932 115.458 45.8347 117.623C43.1331 119.046 41.3119 119.262 32.6306 119.293L24.435 119.324L24.3439 90.0065L24.2832 60.658L33.2984 60.7817C41.9493 60.9054 42.435 60.9363 44.1652 61.6167Z" fill="#020C25"/>
<path d="M67.0825 41.9174C67.0825 43.8039 67.1129 43.8967 68.2663 44.7626C70.1179 46.1542 73.5176 49.8653 74.9746 52.0301C77.7368 56.2051 80.5294 63.1634 81.1972 67.5239C81.3186 68.2971 81.5918 69.4722 81.8043 70.1526C82.6542 72.8122 83.322 81.6261 83.2916 90.2543C83.2613 101.882 82.5328 108.284 80.2562 115.923C79.8616 117.283 79.5277 118.52 79.5277 118.644C79.5277 118.953 78.5867 121.118 77.2815 123.809C76.1888 126.035 73.2748 130.612 72.9105 130.612C72.7891 130.612 72.3945 131.076 72.0302 131.633C71.666 132.159 70.3911 133.458 69.2377 134.478L67.1129 136.334L67.0825 138.096V139.89H78.9206H90.7588V119.634V99.3465L94.9173 99.4393L99.0454 99.5321L110.914 119.696L122.782 139.859L136.26 139.89C148.098 139.89 149.676 139.828 149.524 139.426C149.433 139.179 148.341 137.323 147.126 135.344C143.909 130.179 122.388 94.8932 119.534 90.1925L118.381 88.2751L128.459 71.6371C146.368 41.9793 147.217 40.5567 147.217 40.2784C147.217 40.1237 141.905 40.031 134.256 40.0619L121.265 40.1547L118.745 44.6389C117.349 47.1129 112.31 56.0505 107.545 64.5241L98.8937 79.9251L94.8869 79.8324L90.9105 79.7396L90.8195 59.8543L90.7588 40H78.9206H67.0825V41.9174Z" fill="#020C25"/>
<path d="M145.093 70.0289C142.998 70.3691 139.72 70.8639 137.808 71.1732L134.317 71.6989L134.226 88.3679L134.165 105.037L135.653 107.387C136.472 108.686 137.413 110.263 137.777 110.913C138.111 111.531 138.718 112.583 139.052 113.232C139.417 113.851 140.145 114.995 140.691 115.768C141.207 116.541 142.057 117.84 142.513 118.706C142.998 119.541 144.395 121.83 145.609 123.716C146.823 125.633 147.825 127.272 147.825 127.365C147.825 127.674 149.191 129.685 149.403 129.685C149.524 129.685 149.646 124.365 149.707 117.84L149.798 106.026L150.617 104.418C151.953 101.882 153.744 100.924 157.234 100.924C160.695 100.924 162.455 102.099 163.669 105.222C164.337 106.923 164.368 107.14 164.459 123.438L164.55 139.89L172.138 139.828L179.696 139.736V121.335C179.696 103.954 179.666 102.779 179.089 100.336C177.086 91.8934 171.137 87.5638 162.243 88.0277C157.629 88.2751 154.078 89.7905 151.103 92.6975L149.646 94.0891L149.585 81.8425C149.524 73.9874 149.373 69.565 149.191 69.5032C149.039 69.4722 147.187 69.7197 145.093 70.0289Z" fill="#020C25"/>
</g>
<defs>
<clipPath id="clip0">
<rect width="180" height="99.8901" fill="white" transform="translate(0 40)"/>
</clipPath>
</defs>
</svg>
