<svg width="91" height="50" viewBox="0 0 91 50" fill="none" xmlns="http://www.w3.org/2000/svg">
<g clip-path="url(#clip0)">
<path d="M0.153442 24.984V49.9995H10.6346C21.0082 49.9995 22.3587 49.9531 24.9367 49.4422C33.3308 47.7859 37.9346 42.4453 39.3464 32.6621C39.7607 29.8292 39.9448 26.5165 39.8528 23.4515C39.5765 14.8602 37.8271 9.14812 34.3283 5.46391C31.8116 2.81686 28.6964 1.28435 24.1541 0.432956C22.4047 0.107878 21.8523 0.0923984 11.2484 0.0459588L0.153442 -0.0159607V24.984ZM22.328 10.82C25.1055 11.919 26.4099 14.0088 27.1926 18.5754C27.6529 21.2379 27.699 28.5444 27.2539 31.1915C26.5787 35.3401 25.2744 37.7704 23.172 38.854C21.8062 39.5661 20.8855 39.6744 16.4966 39.6899L12.3533 39.7054L12.3072 25.0305L12.2765 10.3401L16.8342 10.402C21.2077 10.4639 21.4533 10.4794 22.328 10.82Z" fill="#ADFF00"/>
<path d="M33.9139 0.959754C33.9139 1.90403 33.9293 1.95047 34.5124 2.3839C35.4485 3.0805 37.1672 4.93808 37.9038 6.02167C39.3003 8.11146 40.7121 11.5944 41.0497 13.7771C41.1111 14.1641 41.2492 14.7523 41.3566 15.0929C41.7863 16.4241 42.1239 20.8359 42.1085 25.1548C42.0932 30.9752 41.7249 34.1796 40.574 38.0031C40.3745 38.6842 40.2057 39.3034 40.2057 39.3653C40.2057 39.5201 39.73 40.6037 39.0701 41.9505C38.5177 43.065 37.0445 45.356 36.8603 45.356C36.7989 45.356 36.5994 45.5882 36.4153 45.8669C36.2311 46.13 35.5866 46.7802 35.0035 47.291L33.9293 48.2198L33.9139 49.1022V50H39.8988H45.8836V39.8607V29.7059L47.986 29.7523L50.073 29.7988L56.0731 39.8916L62.0733 49.9845L68.8868 50C74.8716 50 75.6696 49.969 75.5929 49.7678C75.5468 49.644 74.9944 48.7152 74.3806 47.7245C72.7539 45.1393 61.8738 27.4768 60.4313 25.1238L59.8482 24.1641L64.943 15.8359C73.9969 0.990713 74.4266 0.278639 74.4266 0.13932C74.4266 0.0619209 71.7411 0.0154813 67.874 0.0309611L61.306 0.0774008L60.0323 2.32198C59.3264 3.56037 56.779 8.03406 54.3698 12.2755L49.9962 19.9845L47.9706 19.9381L45.9603 19.8916L45.9143 9.93808L45.8836 1.39698e-06H39.8988H33.9139V0.959754Z" fill="#ADFF00"/>
<path d="M73.3526 15.0309C72.2937 15.2012 70.6364 15.4489 69.6696 15.6037L67.9049 15.8669L67.8588 24.2105L67.8281 32.5542L68.5801 33.7306C68.9944 34.3808 69.4701 35.1703 69.6543 35.4954C69.8231 35.8049 70.13 36.3313 70.2988 36.6563C70.4829 36.9659 70.8512 37.5387 71.1275 37.9257C71.3883 38.3127 71.818 38.9628 72.0482 39.3963C72.2937 39.8142 72.9996 40.9597 73.6135 41.904C74.2273 42.8638 74.7337 43.6842 74.7337 43.7306C74.7337 43.8854 75.4242 44.8916 75.5317 44.8916C75.593 44.8916 75.6544 42.2291 75.6851 38.9628L75.7312 33.0495L76.1455 32.2446C76.8207 30.9752 77.7261 30.4953 79.4909 30.4953C81.2403 30.4953 82.1303 31.0836 82.7441 32.6471C83.0817 33.4984 83.0971 33.6068 83.1431 41.7647L83.1892 50L87.0256 49.969L90.8467 49.9226V40.7121C90.8467 32.0124 90.8313 31.4241 90.5398 30.2012C89.5269 25.9752 86.5192 23.808 82.0229 24.0402C79.6903 24.1641 77.8949 24.9226 76.391 26.3777L75.6544 27.0743L75.6237 20.9443C75.593 17.0124 75.5163 14.7987 75.4242 14.7678C75.3475 14.7523 74.4114 14.8761 73.3526 15.0309Z" fill="#ADFF00"/>
</g>
<defs>
<clipPath id="clip0">
<rect width="91" height="50" fill="white"/>
</clipPath>
</defs>
</svg>
